<?xml version="1.0" encoding="UTF-8" standalone="no"?>
<!-- Created with Inkscape (http://www.inkscape.org/) -->

<svg
   xmlns:dc="http://purl.org/dc/elements/1.1/"
   xmlns:cc="http://creativecommons.org/ns#"
   xmlns:rdf="http://www.w3.org/1999/02/22-rdf-syntax-ns#"
   xmlns:svg="http://www.w3.org/2000/svg"
   xmlns="http://www.w3.org/2000/svg"
   xmlns:sodipodi="http://sodipodi.sourceforge.net/DTD/sodipodi-0.dtd"
   xmlns:inkscape="http://www.inkscape.org/namespaces/inkscape"
   width="210mm"
   height="297mm"
   viewBox="0 0 744.09448819 1052.3622047"
   id="svg4399"
   version="1.1"
   inkscape:version="0.91 r13725"
   sodipodi:docname="uog_colour.svg">
  <defs
     id="defs4401">
    <clipPath
       id="clipPath4963"
       clipPathUnits="userSpaceOnUse">
      <path
         inkscape:connector-curvature="0"
         id="path4965"
         d="M 0,480.797 0,0 l 1553.96,0 0,480.797 -1553.96,0 z" />
    </clipPath>
  </defs>
  <sodipodi:namedview
     id="base"
     pagecolor="#ffffff"
     bordercolor="#666666"
     borderopacity="1.0"
     inkscape:pageopacity="0.0"
     inkscape:pageshadow="2"
     inkscape:zoom="0.35"
     inkscape:cx="-112.14286"
     inkscape:cy="520"
     inkscape:document-units="px"
     inkscape:current-layer="layer1"
     showgrid="false"
     inkscape:window-width="732"
     inkscape:window-height="405"
     inkscape:window-x="5128"
     inkscape:window-y="681"
     inkscape:window-maximized="0" />
  <metadata
     id="metadata4404">
    <rdf:RDF>
      <cc:Work
         rdf:about="">
        <dc:format>image/svg+xml</dc:format>
        <dc:type
           rdf:resource="http://purl.org/dc/dcmitype/StillImage" />
        <dc:title></dc:title>
      </cc:Work>
    </rdf:RDF>
  </metadata>
  <g
     inkscape:label="Layer 1"
     inkscape:groupmode="layer"
     id="layer1">
    <g
       transform="matrix(1.25,0,0,-1.25,-209.26536,562.41204)"
       inkscape:label="ink_ext_XXXXXX"
       id="g4955">
      <g
         transform="scale(0.1,0.1)"
         id="g4957">
        <g
           id="g4959">
          <g
             clip-path="url(#clipPath4963)"
             id="g4961">
            <path
               inkscape:connector-curvature="0"
               id="path4967"
               style="fill:#0d3258;fill-opacity:1;fill-rule:nonzero;stroke:none"
               d="M 0.0429688,222.117 C -0.015625,143.359 97.3008,56.4922 155.527,53.4844 l -0.168,0 c 58.231,3.0078 155.543,89.8746 155.485,168.6326 0.379,106.938 0.008,254.207 0.008,254.207 l -310.8090312,-0.023 0,-254.184" />
            <path
               inkscape:connector-curvature="0"
               id="path4969"
               style="fill:#0d3258;fill-opacity:1;fill-rule:nonzero;stroke:none"
               d="m 608.594,476.324 0,-5.605 c -19.926,-0.332 -27.051,-8.352 -27.051,-27.348 l 0,-80.23 c 0,-36.848 -23.457,-76.383 -87.957,-76.383 -56.75,0 -85.856,32.379 -85.856,74.879 l 0,86.773 c 0,19.028 -5.347,21.977 -25.562,22.309 l 0,5.605 76.379,0 0,-5.605 -2.688,0 c -16.324,0 -23.464,-4.496 -23.464,-21.719 l 0,-82.609 c 0,-40.098 23.464,-64.168 67.742,-64.168 33.578,0 67.754,13.965 67.754,64.437 l 0,69.262 c 0,28.527 -4.473,33.566 -29.125,34.797 l 0,5.605 69.828,0" />
            <path
               inkscape:connector-curvature="0"
               id="path4971"
               style="fill:#0d3258;fill-opacity:1;fill-rule:nonzero;stroke:none"
               d="m 642.156,317.363 c 0,-16.332 3.864,-20.23 19.91,-20.23 l 0,-5.629 -59.718,0 0,5.629 c 13.062,0 19.898,7.152 19.898,18.742 l 0,62.387 c 0,11 -1.199,13.082 -8.91,14.562 l -10.117,2.082 0,4.754 34.183,12.488 4.754,0 0,-23.16 c 19.91,12.469 36.543,23.453 51.11,23.453 20.211,0 31.789,-14.843 31.789,-44.546 0,-39.516 -2.075,-47.235 -2.364,-58.852 -0.32,-8.012 4.442,-11.91 16.629,-11.91 l 6.547,0 0,-5.629 -63.871,0 0,5.629 c 8.59,0.328 13.641,2.394 16.906,5.664 5.645,5.66 6.243,27.359 6.243,66.851 0,23.782 -11.575,31.227 -23.489,31.227 -9.5,0 -24.043,-8.332 -39.5,-19.023 l 0,-64.489" />
            <path
               inkscape:connector-curvature="0"
               id="path4973"
               style="fill:#0d3258;fill-opacity:1;fill-rule:nonzero;stroke:none"
               d="m 786.773,480.797 c 7.133,0 13.051,-5.039 13.051,-11.309 0,-6.222 -5.918,-11.285 -13.051,-11.285 -7.156,0 -12.785,5.063 -12.785,11.285 0,6.27 5.629,11.309 12.785,11.309 z m 12.176,-166.695 c 0,-10.418 5.653,-16.969 21.395,-16.969 l 0,-5.629 -65.965,0 0,5.629 c 18.117,0 24.66,5.953 24.66,21.726 l 0,59.707 c 0,11.606 -1.48,13.071 -9.199,14.575 l -13.973,2.679 0,4.743 38.613,13.382 4.469,0 0,-99.843" />
            <path
               inkscape:connector-curvature="0"
               id="path4975"
               style="fill:#0d3258;fill-opacity:1;fill-rule:nonzero;stroke:none"
               d="m 880.863,288.844 -43.082,98.629 c -4.461,10.402 -8.328,13.984 -13.086,14.882 l -9.203,1.469 0,5.356 60.621,0 0,-5.356 c -18.14,-0.586 -23.785,-2.949 -16.648,-16.91 l 31.519,-74.008 30.282,68.637 c 5.359,12.207 2.675,20.812 -18.985,22.281 l 0,5.356 51.696,0 0,-5.356 c -11.286,-2.074 -17.86,-8.597 -23.497,-21.683 l -40.984,-93.297 -8.633,0" />
            <path
               inkscape:connector-curvature="0"
               id="path4977"
               style="fill:#0d3258;fill-opacity:1;fill-rule:nonzero;stroke:none"
               d="m 1033.79,374.711 c -3.26,19.305 -15.13,32.102 -29.42,32.102 -9.804,0 -24.647,-4.458 -31.495,-32.102 l 60.915,0 z m -61.825,-7.719 c -0.559,-4.48 -1.149,-8.613 -1.149,-12.476 0,-30.903 21.668,-51.719 45.134,-51.719 14.88,0 26.46,5.941 37.76,19.332 l 3.26,-3.555 c -12.48,-15.777 -31.19,-30.64 -52.89,-30.64 -29.115,0 -51.682,26.453 -51.682,60.933 0,31.504 21.082,63.574 57.342,63.574 40.07,0 39.22,-28.808 49.01,-38.617 l 0,-6.832 -86.785,0" />
            <path
               inkscape:connector-curvature="0"
               id="path4979"
               style="fill:#0d3258;fill-opacity:1;fill-rule:nonzero;stroke:none"
               d="m 1112.83,313.207 c 0,-12.176 4.47,-16.074 19.32,-16.074 l 11.29,0 0,-5.629 -70.43,0 0,5.629 c 15.16,0.328 19.91,6.551 19.91,22.32 l 0,68.617 -19.91,7.157 0,5.043 33.86,11.878 5.96,0 0,-31.484 0.59,0 c 14.85,24.371 18.41,29.996 28.23,29.996 3.58,0 4.45,-0.297 10.1,-2.672 2.99,-1.175 8.34,-2.39 15.45,-4.437 l -7.11,-17.852 c -4.47,0.594 -10.13,2.09 -15.77,4.781 -3.25,1.489 -6.82,2.95 -10.41,2.95 -5.31,0 -8.59,-3.602 -11.58,-7.731 -3.85,-5.328 -7.11,-10.422 -9.5,-14.844 l 0,-57.648" />
            <path
               inkscape:connector-curvature="0"
               id="path4981"
               style="fill:#0d3258;fill-opacity:1;fill-rule:nonzero;stroke:none"
               d="m 1183.93,321.539 c 3.54,-17.855 14.83,-27.945 28.21,-27.945 11.89,0 21.1,8.91 21.1,19.613 0,6.246 -1.49,10.106 -9.52,18.141 -21.1,21.086 -44.56,23.168 -44.56,47.828 0,19.609 15.47,33.265 38.03,33.265 8.02,0 16.34,-1.781 23.77,-4.75 l 0.6,-27.027 -5.06,0 c -2.09,15.156 -11.87,24.649 -23.77,24.649 -9.79,0 -18.1,-6.84 -18.1,-16.629 0,-26.172 55.24,-30.614 55.24,-66.852 0,-19.328 -16.06,-33.898 -36.85,-33.898 -5.64,0 -9.78,0.91 -13.06,2.082 -3.27,0.906 -5.67,1.781 -8.01,1.781 -1.79,0 -3.57,-1.172 -5.06,-3.551 l -4.47,0 -3.26,33.293 4.77,0" />
            <path
               inkscape:connector-curvature="0"
               id="path4983"
               style="fill:#0d3258;fill-opacity:1;fill-rule:nonzero;stroke:none"
               d="m 1296.61,480.797 c 7.14,0 13.06,-5.039 13.06,-11.309 0,-6.222 -5.92,-11.285 -13.06,-11.285 -7.14,0 -12.77,5.063 -12.77,11.285 0,6.27 5.63,11.309 12.77,11.309 z m 12.18,-166.695 c 0,-10.418 5.65,-16.969 21.4,-16.969 l 0,-5.629 -65.98,0 0,5.629 c 18.15,0 24.68,5.953 24.68,21.726 l 0,59.707 c 0,11.606 -1.49,13.071 -9.21,14.575 l -13.99,2.679 0,4.743 38.64,13.382 4.46,0 0,-99.843" />
            <path
               inkscape:connector-curvature="0"
               id="path4985"
               style="fill:#0d3258;fill-opacity:1;fill-rule:nonzero;stroke:none"
               d="m 1407.97,409.18 -4.75,-13.075 -31.98,0 0,-69.23 c 0,-18.707 13.38,-24.977 19.61,-24.977 6.55,0 12.47,5.079 18.11,14.903 l 4.78,-4.473 c -7.13,-15.473 -18.74,-24.394 -32.42,-24.394 -17.5,0 -29.99,14.57 -29.99,34.468 l 0,73.703 -13.67,0 0,4.77 c 11.6,5.625 21.7,19.297 28.52,37.734 l 5.06,0 0,-29.429 36.73,0" />
            <path
               inkscape:connector-curvature="0"
               id="path4987"
               style="fill:#0d3258;fill-opacity:1;fill-rule:nonzero;stroke:none"
               d="m 1518.9,376.199 c 8.92,22.586 3.26,27.039 -14.25,27.625 l 0,5.356 49.31,0 0,-5.356 c -12.18,-1.469 -19,-9.808 -24.65,-23.769 l -50.54,-125.989 c -8.88,-21.98 -15.73,-31.796 -26.12,-31.796 -7.15,0 -12.18,4.472 -12.18,10.41 0,12.183 17.22,9.199 24.65,16.652 3.27,3.277 7.73,10.988 10.1,16.918 l 8.92,22.316 -46.04,97.727 c -5.67,12.18 -10.99,17.258 -23.49,17.531 l 0,5.356 59.74,0 0,-5.356 c -18.13,-0.273 -20.22,-5.629 -14.26,-18.125 l 33.57,-72.492 25.24,62.992" />
            <path
               inkscape:connector-curvature="0"
               id="path4989"
               style="fill:#0d3258;fill-opacity:1;fill-rule:nonzero;stroke:none"
               d="m 446.656,180.063 c -18.726,0 -35.355,-35.946 -35.355,-65.665 0,-24.9332 10.679,-37.1324 20.789,-37.1324 23.769,0 37.746,38.6254 37.746,65.9574 0,20.824 -10.109,36.84 -23.18,36.84 z m 15.157,11.007 c 8.609,0 27.035,-11.871 27.035,-43.707 0,-56.4411 -56.16,-81.1013 -70.121,-81.1013 -13.961,0 -26.442,22.2774 -26.442,46.9573 0,48.121 51.699,77.851 69.528,77.851" />
            <path
               inkscape:connector-curvature="0"
               id="path4991"
               style="fill:#0d3258;fill-opacity:1;fill-rule:nonzero;stroke:none"
               d="m 499.449,177.691 0.899,5.645 c 7.136,0.894 14.269,2.09 21.699,3.883 4.453,24.351 13.363,49.894 30,66.535 10.394,10.391 23.484,16.047 35.062,16.047 11.602,0 21.09,-6.535 21.09,-14.254 0,-4.742 -3.57,-8.629 -8.332,-8.629 -9.777,0 -17.82,12.187 -26.429,12.187 -11.598,0 -21.083,-13.07 -25.254,-32.683 l -8.016,-38.926 25.547,0 -2.973,-9.805 -24.375,0 -15.14,-86.7691 C 511.637,24.3711 477.754,0.613281 449.828,0.613281 c -12.461,0 -22.871,6.226559 -22.871,13.664019 0,4.754 4.762,8.9141 9.82,8.9141 10.977,0 16.914,-13.0781 28.207,-13.0781 6.848,0 12.77,3.2773 18.141,8.6172 14.844,14.8554 20.488,65.6328 21.676,72.7734 l 15.156,86.1871 -20.508,0" />
            <path
               inkscape:connector-curvature="0"
               id="path4993"
               style="fill:#0d3258;fill-opacity:1;fill-rule:nonzero;stroke:none"
               d="M 783.164,83.8086 C 753.762,68.6367 716.031,65.0938 703.547,65.0938 c -65.067,0 -95.379,50.1992 -95.379,93.5942 0,44.558 31.211,100.417 103.707,100.417 31.781,0 52.883,-10.097 59.109,-10.097 2.688,0 5.075,0.578 6.848,2.066 l 4.156,0 0,-48.133 -5.929,0 c -8.051,37.141 -33.293,48.731 -60.922,48.731 -52.293,0 -79.043,-43.391 -79.043,-91.227 0,-60.8942 42.793,-87.9216 76.957,-87.9216 13.679,0 28.812,2.9649 45.469,11.2852 l 0,37.4374 c 0,16.914 -5.938,22.578 -23.762,22.578 l -11.012,0 0,5.332 80.219,0 0,-5.332 c -14.844,-0.898 -20.801,-5.953 -20.801,-18.715 l 0,-41.3004" />
            <path
               inkscape:connector-curvature="0"
               id="path4995"
               style="fill:#0d3258;fill-opacity:1;fill-rule:nonzero;stroke:none"
               d="m 848.656,93.3047 c 0,-12.1719 5.657,-17.8164 17.235,-17.8164 l 5.066,0 0,-5.6602 -66.848,0 0,5.6602 c 19,0 24.645,5.6445 24.645,19.9062 l 0,143.4925 c 0,8.355 -0.895,10.992 -9.203,11.918 l -13.356,1.492 0,5.019 38.016,12.188 4.445,0 0,-176.1993" />
            <path
               inkscape:connector-curvature="0"
               id="path4997"
               style="fill:#0d3258;fill-opacity:1;fill-rule:nonzero;stroke:none"
               d="m 944.426,125.109 c -5.653,-3.273 -10.403,-5.375 -17.531,-8.339 -18.133,-7.415 -24.957,-10.403 -24.957,-22.6059 0,-10.6797 8.593,-17.4922 17.535,-17.4922 4.746,0 8.32,1.4726 24.953,13.0625 l 0,35.3746 z m -58.824,27.02 c -0.59,1.812 -0.899,2.68 -0.899,4.172 0,10.414 24.656,34.48 43.969,34.48 8.933,0 22.871,-4.176 31.183,-15.781 4.477,-6.246 4.477,-10.094 4.477,-25.531 l 0,-39.817 c 0,-23.7731 0,-29.1247 7.742,-29.1247 3.242,0 7.114,0.3165 14.535,6.5352 l 1.489,-4.4648 c -16.024,-13.0625 -24.368,-16.336 -29.414,-16.336 -12.184,0 -13.368,13.3906 -13.661,18.1016 -20.496,-16.8985 -26.437,-18.1016 -34.492,-18.1016 -17.211,0 -27.609,9.8164 -27.609,24.3633 0,18.109 16.043,24.355 35.058,29.109 6.239,1.512 16.043,5.063 26.446,11.317 l 0,23.472 c 0,8.321 0,13.09 -5.067,19.012 -3.839,4.77 -10.078,8.61 -16.629,8.61 -9.8,0 -18.429,-8.321 -18.429,-14.532 0,-1.808 0.304,-2.984 1.492,-5.664 l -20.191,-9.82" />
            <path
               inkscape:connector-curvature="0"
               id="path4999"
               style="fill:#0d3258;fill-opacity:1;fill-rule:nonzero;stroke:none"
               d="m 1002.72,99.8477 c 3.6,-17.8243 14.86,-27.9532 28.27,-27.9532 11.88,0 21.09,8.9493 21.09,19.6094 0,6.2617 -1.49,10.1171 -9.53,18.1481 -21.07,21.071 -44.554,23.184 -44.554,47.832 0,19.618 15.444,33.297 38.034,33.297 8.01,0 16.34,-1.804 23.76,-4.761 l 0.59,-27.043 -5.04,0 c -2.09,15.16 -11.88,24.668 -23.78,24.668 -9.8,0 -18.12,-6.844 -18.12,-16.641 0,-26.145 55.27,-30.602 55.27,-66.875 0,-19.2852 -16.05,-33.8673 -36.84,-33.8673 -5.63,0 -9.81,0.8867 -13.08,2.0625 -3.25,0.9219 -5.65,1.7891 -8.02,1.7891 -1.8,0 -3.55,-1.1602 -5.04,-3.5508 l -4.49,0 -3.244,33.2852 4.724,0" />
            <path
               inkscape:connector-curvature="0"
               id="path5001"
               style="fill:#0d3258;fill-opacity:1;fill-rule:nonzero;stroke:none"
               d="m 1135.53,185.113 c -11.3,0 -28.82,-6.234 -28.82,-33.875 0,-17.511 8.92,-41.011 31.51,-41.011 17.22,0 28.52,14.269 28.52,34.785 0,25.535 -13.08,40.101 -31.21,40.101 z m 8.32,-176.1755 c 25.26,0 49.02,16.6328 49.02,35.3477 0,10.9882 -9.19,16.6445 -19.91,17.5156 -7.71,0.9101 -45.14,1.2226 -53.76,2.3945 -8.33,-9.793 -19.32,-13.9648 -19.32,-25.5234 0,-14.0078 19.6,-29.7344 43.97,-29.7344 z m 67.46,154.1755 c -4.46,0.289 -18.44,1.516 -29.71,3.602 1.77,-3.313 5.04,-9.508 5.04,-19.024 0,-22 -18.99,-43.113 -51.99,-43.113 -5.64,0 -8.31,0.613 -13.68,2.391 -4.74,-5.055 -18.1,-8.3127 -18.1,-15.137 0,-7.4687 12.76,-10.4101 42.47,-10.6992 33.59,-0.289 45.17,-1.7969 54.09,-10.7109 7.12,-7.1485 8.9,-14.5469 8.9,-20.7774 0,-19.3242 -26.15,-49.031219 -81.12,-49.031219 -30.89,0 -45.74,13.664019 -45.74,28.230519 0,17.2148 18.13,19.8867 31.78,36.5078 -16.03,1.5117 -28.22,11.5976 -28.22,21.1015 0,13.6759 19.93,14.2739 30.31,22.0039 -18.12,7.129 -28.53,19.902 -28.53,36.852 0,25.566 22.88,45.472 52.29,45.472 13.67,0 25.27,-4.176 33.29,-11.902 13.35,0 25.84,1.508 38.92,2.976 l 0,-18.742" />
            <path
               inkscape:connector-curvature="0"
               id="path5003"
               style="fill:#0d3258;fill-opacity:1;fill-rule:nonzero;stroke:none"
               d="m 1285.68,73.4023 c 17.53,0 37.41,17.836 37.41,47.5387 0,33.868 -20.77,62.704 -45.73,62.704 -19.62,0 -37.75,-20.243 -37.75,-45.774 0,-35.957 20.53,-64.4687 46.07,-64.4687 z m -4.17,117.3787 c 36.26,0 63.87,-27.035 63.87,-62.422 0,-35.0543 -27.61,-62.0973 -62.98,-62.0973 -36.83,0 -65.06,26.7461 -65.06,61.4923 0,41 33.28,63.027 64.17,63.027" />
            <path
               inkscape:connector-curvature="0"
               id="path5005"
               style="fill:#0d3258;fill-opacity:1;fill-rule:nonzero;stroke:none"
               d="m 1483.27,67.1484 -35.37,83.7926 -35.66,-83.7926 -8.29,0 -44.31,99.8556 c -4.14,9.207 -8.33,13.66 -21.98,15.141 l 0,5.351 57.65,0 0,-5.351 c -17.54,-0.879 -18.73,-5.934 -12.47,-19.887 l 32.07,-71.633 29.13,68.945 c -6.54,15.125 -11.6,20.493 -22,21.696 l -7.13,0.879 0,5.351 61.5,0 0,-5.351 c -14.55,-0.29 -18.99,-4.743 -12.77,-19.586 l 29.11,-70.727 28.53,69.508 c 6.54,15.762 1.49,20.805 -17.24,20.805 l 0,5.351 49.92,0 0,-5.351 c -11.28,-1.161 -18.42,-6.825 -24.37,-21.379 l -38.31,-93.6176 -8.01,0" />
            <path
               inkscape:connector-curvature="0"
               id="path5007"
               style="fill:#a3e1f9;fill-opacity:1;fill-rule:nonzero;stroke:none"
               d="m 153.148,95.375 9.87891,0 0,273.785 -9.87891,0 0,-273.785 z" />
            <path
               inkscape:connector-curvature="0"
               id="path5009"
               style="fill:#fccc22;fill-opacity:1;fill-rule:nonzero;stroke:none"
               d="m 223.344,370.84 c 8.82,0.051 23.086,-0.039 32.34,-0.039 2.871,0 7.578,0.847 4.941,-5.488 -2.34,-5.61 -5.703,-13.434 -7.156,-16.797 -4.875,0 -24.664,-0.016 -24.715,0.082 -1.574,3.664 -3.836,8.882 -6.707,15.511 -1.524,3.539 -2.281,6.731 1.297,6.731 z m -4.477,-95.961 48.797,0 c 14.402,0 15.715,-1.981 16.731,-5.07 -0.606,4.8 -3.711,29.371 -5.875,47.16 -0.567,4.64 -2.196,17.41 -8.633,25.019 -2.035,2.446 -3.016,3.672 -7.391,5.539 0.34,0.973 4.32,10.871 7.274,18.864 1.519,4.089 -0.122,8.156 -3.243,10.058 -2.714,1.633 -6.199,1.703 -8.691,1.703 -16.723,0 -29.637,-0.027 -34.793,-0.027 -8.938,0 -13.086,-5.684 -10.355,-12.551 2.074,-5.199 5.519,-14.07 7.093,-18.125 -10.992,-3.672 -14.625,-18.676 -16.222,-31.672 -2.653,-21.91 -6.25,-51.136 -6.508,-52.89 -0.387,-2.785 -0.852,-5.09 3.719,-5.305 8.671,-0.555 18.796,-0.617 35.847,-0.176 1.645,-0.926 3.774,-1.504 6.563,-1.41 2.765,0.043 4.785,0.777 6.234,1.801 6.953,0.25 14.863,0.57 23.906,0.937 -7.945,0.188 -15.39,0.411 -22.281,0.606 2.484,3.082 2.231,7.301 2.004,8.125 -1.031,-11.426 -15.871,-10.332 -12.199,1.789 -1.59,0 -5.723,0 -8.356,-2.149 -0.703,-1.769 -0.457,-4.734 1.235,-7.179 -9.629,0.422 -17.567,0.777 -23.301,1.097 -2.949,0.149 -4.371,2.274 -2.879,4.243 6.219,8.113 6.574,9.613 11.324,9.613" />
            <path
               inkscape:connector-curvature="0"
               id="path5011"
               style="fill:#ffffff;fill-opacity:1;fill-rule:nonzero;stroke:none"
               d="m 155.777,96.5469 c 0,-3.211 -2.144,-5.8281 -4.804,-5.8281 -2.649,0 -4.817,2.6171 -4.817,5.8281 l 0,27.1681 c 0,3.183 2.168,5.812 4.817,5.812 2.66,0 4.804,-2.629 4.804,-5.812 l 0,-27.1681" />
            <path
               inkscape:connector-curvature="0"
               id="path5013"
               style="fill:#df9824;fill-opacity:1;fill-rule:nonzero;stroke:none"
               d="m 88.7852,419.164 c 1.539,0.645 3.7343,0.481 5.7656,0.481 -2.2461,1.871 -4.2813,2.597 -5.5117,2.925 -2.8711,10.864 -18.6055,7.914 -20.1563,-1.718 -0.5586,-3.485 -12.9101,-5.012 -27.0703,-23.946 -6.5312,-8.699 -15.543,-16.242 -18.2734,-17.98 -2.75,-1.707 3.9453,-1.207 7.039,2.066 2.8985,-2.926 8.5899,5.856 17.1641,7.332 2.2695,0.364 30.7539,5.539 23.2422,21.848 10.0429,-12.91 -6.6914,-22.192 -17.2227,-23.223 0.9258,-0.484 6.3985,-0.914 7.0274,-1.164 1.5742,-0.555 -0.4649,-2.465 0.8125,-3.191 3.0703,-1.696 9.1562,-7.442 9.1562,-7.442 0,0 3.4766,1.18 1.8985,2.743 -4.6954,3.097 -5.9649,4.043 -7.168,5.976 -0.082,0.113 -1.6016,2.977 1.4922,3.789 4.4648,0.36 19.0703,5.547 16.5859,23.86 -0.3984,2.894 1.6328,6.031 5.2188,7.644" />
            <path
               inkscape:connector-curvature="0"
               id="path5015"
               style="fill:#0d3258;fill-opacity:1;fill-rule:nonzero;stroke:none"
               d="m 86.6563,422.207 c 0,-0.961 -0.7149,-1.715 -1.586,-1.715 -0.8555,0 -1.5742,0.754 -1.5742,1.715 0,0.934 0.7187,1.723 1.5742,1.723 0.8711,0 1.586,-0.789 1.586,-1.723" />
            <path
               inkscape:connector-curvature="0"
               id="path5017"
               style="fill:#ffffff;fill-opacity:1;fill-rule:nonzero;stroke:none"
               d="m 160.238,92.0859 5.26563,0 0,38.4648 -5.26563,0 0,-38.4648 z" />
            <path
               inkscape:connector-curvature="0"
               id="path5019"
               style="fill:#fccc22;fill-opacity:1;fill-rule:nonzero;stroke:none"
               d="m 170.191,86.0859 c 1.563,1.6446 2.512,3.8594 2.512,6.3125 0,5.0352 -4.086,9.1406 -9.148,9.1406 l -15.567,0 c -5.054,0 -9.164,-4.1054 -9.164,-9.1406 0,-2.375 0.906,-4.4921 2.364,-6.1211 -1.879,-1.6914 -5.243,-4.9375 -6.176,-6.0468 10.453,-4.6172 30.301,-4.2383 41.488,0.0664 -1.051,0.9023 -4.629,4.1875 -6.309,5.789" />
            <path
               inkscape:connector-curvature="0"
               id="path5021"
               style="fill:#a3e1f9;fill-opacity:1;fill-rule:nonzero;stroke:none"
               d="m 155.535,401.809 c 0,-0.227 -0.023,-0.172 -0.023,0.066 -6.758,6.039 -28.461,8.617 -42.414,5.055 0.91,-1.696 2.035,-7.114 2.632,-9.278 20.602,6.856 39.782,-3.164 39.782,-3.164 0,0.047 0,0.133 0.008,0.2 0,-0.067 0,-0.172 0.015,-0.223 0,0 19.184,10.004 39.797,3.137 0.566,2.168 1.715,7.574 2.637,9.246 -13.981,3.597 -35.672,1.027 -42.434,-5.039" />
            <path
               inkscape:connector-curvature="0"
               id="path5023"
               style="fill:#ffffff;fill-opacity:1;fill-rule:nonzero;stroke:none"
               d="m 161.777,157.035 3.06641,0 0,212.141 -3.06641,0 0,-212.141 z" />
            <path
               inkscape:connector-curvature="0"
               id="path5025"
               style="fill:#ffffff;fill-opacity:1;fill-rule:nonzero;stroke:none"
               d="m 146.313,172.324 9.83594,0 0,196.836 -9.83594,0 0,-196.836 z" />
            <path
               inkscape:connector-curvature="0"
               id="path5027"
               style="fill:#0d3258;fill-opacity:1;fill-rule:nonzero;stroke:none"
               d="m 165.547,293.438 c 0.641,2.3 0.941,7.992 0,9.781 -4.609,0 -11.781,-0.035 -15.961,0.066 9.57,-3.488 15.961,-9.847 15.961,-9.847" />
            <path
               inkscape:connector-curvature="0"
               id="path5029"
               style="fill:#0d3258;fill-opacity:1;fill-rule:nonzero;stroke:none"
               d="m 131.055,118.184 c 5.504,-0.829 35.023,-2.223 35.023,-2.223 l 4.82,-12.523 c 0,0 -25.777,0.671 -39.843,14.746" />
            <path
               inkscape:connector-curvature="0"
               id="path5031"
               style="fill:#a3e1f9;fill-opacity:1;fill-rule:nonzero;stroke:none"
               d="m 251.887,207.969 c -9.235,5.969 -20.434,1.383 -32.567,11.554 0.043,-31.593 23.051,-37.929 10.11,-46.359 -11.547,-7.543 -22.719,-9.418 -34.325,-8.453 0.985,1.578 2.723,4.453 4.11,5.879 -14.227,1.832 -26.625,0.801 -31.828,0.195 -17.707,5.199 -37.352,11.77 -61.008,12.129 4.297,-3.504 8.519,-9.574 8.519,-20.043 -3.589,14.137 -18.2886,21.52 -25.5035,24.336 -2.1601,0.816 -4.1797,1.195 -6.2851,1.539 -1.0586,-1.441 -3.3399,-3.875 -7.1719,-5.305 -2.1875,1.164 -3.9727,-0.906 -3.6719,-1.586 0.1211,-0.335 0.0782,-0.671 -0.1836,-1.011 -2.1132,-2.739 -9.0507,-1.434 -14.207,0.355 -5.9453,2.055 -5.707,-2.043 -4.5547,-4.094 1.8633,-3.3 3.6719,-5.445 4.5508,-7.277 7.9023,-16.133 13.7539,-26.726 31.2695,-36.742 16.6444,-12.281 37.5624,-18.613 58.8474,-19.336 7.766,-2.781 25.602,-7.699 47.965,-4.125 -4.348,2.926 -8.691,5.816 -10.133,8.719 28.422,8.211 52.989,26.883 63.043,55.062 0.117,0.309 0.223,0.621 0.332,0.93 1.801,6.172 -4.175,14.371 -12.668,6.285 7.356,17.676 19.528,10.024 16.95,-0.43 9.707,13.075 22.699,27.129 40.043,32.461 -15.848,7.305 -31.407,0.969 -41.633,-4.683" />
            <path
               inkscape:connector-curvature="0"
               id="path5033"
               style="fill:#0d3258;fill-opacity:1;fill-rule:nonzero;stroke:none"
               d="m 165.852,235.531 c 0.656,2.324 0.929,8.028 0,9.782 -4.622,0 -11.782,-0.059 -15.942,0.07 9.543,-3.492 15.942,-9.852 15.942,-9.852" />
            <path
               inkscape:connector-curvature="0"
               id="path5035"
               style="fill:#fccc22;fill-opacity:1;fill-rule:nonzero;stroke:none"
               d="m 172.563,254.141 c 0,-5.078 -4.161,-9.18 -9.282,-9.18 l -15.777,0 c -5.121,0 -9.281,4.102 -9.281,9.18 0,5.058 4.16,9.136 9.281,9.136 l 15.777,0 c 5.121,0 9.282,-4.078 9.282,-9.136" />
            <path
               inkscape:connector-curvature="0"
               id="path5037"
               style="fill:#df9824;fill-opacity:1;fill-rule:nonzero;stroke:none"
               d="m 163.02,248.074 c -9.254,-0.094 -17.207,0 -17.207,0 0,0 13.031,0.785 21.3,9.606 2.168,-1.446 2.575,-9.575 -4.093,-9.606" />
            <path
               inkscape:connector-curvature="0"
               id="path5039"
               style="fill:#0d3258;fill-opacity:1;fill-rule:nonzero;stroke:none"
               d="m 166.008,176.82 c 0.648,2.297 0.91,8.028 0,9.782 -4.625,0 -11.766,-0.059 -15.949,0.074 9.55,-3.5 15.949,-9.856 15.949,-9.856" />
            <path
               inkscape:connector-curvature="0"
               id="path5041"
               style="fill:#fccc22;fill-opacity:1;fill-rule:nonzero;stroke:none"
               d="m 172.691,195.699 c 0,-5.078 -4.152,-9.176 -9.273,-9.176 l -15.777,0 c -5.125,0 -9.266,4.098 -9.266,9.176 0,5.063 4.141,9.11 9.266,9.11 l 15.777,0 c 5.121,0 9.273,-4.047 9.273,-9.11" />
            <path
               inkscape:connector-curvature="0"
               id="path5043"
               style="fill:#df9824;fill-opacity:1;fill-rule:nonzero;stroke:none"
               d="m 163.137,189.641 c -9.266,-0.09 -17.192,0.011 -17.192,0.011 0,0 13.008,0.723 21.285,9.602 2.172,-1.473 2.594,-9.574 -4.093,-9.613" />
            <path
               inkscape:connector-curvature="0"
               id="path5045"
               style="fill:#fccc22;fill-opacity:1;fill-rule:nonzero;stroke:none"
               d="m 141.555,326.91 27.8945,0 0,27.3828 -27.8945,0 0,-27.3828 z" />
            <path
               inkscape:connector-curvature="0"
               id="path5047"
               style="fill:#df9824;fill-opacity:1;fill-rule:nonzero;stroke:none"
               d="m 169.449,326.949 c -4.738,-1.144 -4.429,-5.109 -4.605,-6.566 0,0 -11.246,-0.078 -18.633,0 0.059,0.422 0.23,5.847 -4.656,6.566 0,0 26.101,-0.023 27.894,0" />
            <path
               inkscape:connector-curvature="0"
               id="path5049"
               style="fill:#df9824;fill-opacity:1;fill-rule:nonzero;stroke:none"
               d="m 157.844,326.566 7.55469,0 0,27.7266 -7.55469,0 0,-27.7266 z" />
            <path
               inkscape:connector-curvature="0"
               id="path5051"
               style="fill:#fccc22;fill-opacity:1;fill-rule:nonzero;stroke:none"
               d="m 67.1445,184.039 c -1.3984,0.527 -2.1562,1.715 -2.5351,2.609 -0.9024,2 -0.875,4.668 0.1015,7.2 0.9688,2.48 2.7344,4.507 4.7813,5.406 0.8828,0.387 2.2422,0.726 3.6289,0.203 2.0547,-0.824 3.2227,-3.113 3.2227,-5.863 0,-1.27 -0.2461,-2.621 -0.7579,-3.942 -0.9531,-2.504 -2.75,-4.519 -4.7656,-5.433 -0.8945,-0.371 -2.2422,-0.746 -3.6758,-0.18 z m 0.8594,18.535 c -2.9336,-1.285 -5.3906,-3.984 -6.6953,-7.414 -1.3438,-3.441 -1.3438,-7.062 -0.0547,-10.027 0.9375,-2.125 2.5703,-3.746 4.5859,-4.531 1.9922,-0.762 4.2969,-0.653 6.4454,0.3 2.9375,1.27 5.3867,3.993 6.7187,7.395 2.3828,6.16 0.3125,12.656 -4.5469,14.555 -2.0117,0.796 -4.3047,0.695 -6.4531,-0.278" />
            <path
               inkscape:connector-curvature="0"
               id="path5053"
               style="fill:#a3e1f9;fill-opacity:1;fill-rule:nonzero;stroke:none"
               d="m 72.1406,185.016 c -1.5781,0.504 -5.4492,1.632 -10.1172,1.785 -3.3086,0.101 -6.5312,2.012 -6.3398,2.988 0.1836,0.703 1.043,1.063 2.4297,1.262 3.1953,0.449 10.1172,0.078 17.5898,-1.133 -0.625,-1.805 -1.6406,-3.469 -3.5625,-4.902" />
            <path
               inkscape:connector-curvature="0"
               id="path5055"
               style="fill:#ef2f2a;fill-opacity:1;fill-rule:nonzero;stroke:none"
               d="m 83.9102,407.359 c -0.1172,-13.918 -10.7696,-18.3 -13.836,-19.101 1.0156,3.086 5.3594,17.519 13.836,19.101" />
            <path
               inkscape:connector-curvature="0"
               id="path5057"
               style="fill:#fccc22;fill-opacity:1;fill-rule:nonzero;stroke:none"
               d="m 172.789,312.285 c 0,-5.078 -4.137,-9.211 -9.289,-9.211 l -15.758,0 c -5.14,0 -9.281,4.133 -9.281,9.211 0,5.035 4.141,9.133 9.281,9.133 l 15.758,0 c 5.152,0 9.289,-4.098 9.289,-9.133" />
            <path
               inkscape:connector-curvature="0"
               id="path5059"
               style="fill:#df9824;fill-opacity:1;fill-rule:nonzero;stroke:none"
               d="m 163.262,306.223 c -9.27,-0.106 -17.227,0.004 -17.227,0.004 0,0 13.031,0.781 21.313,9.613 2.168,-1.481 2.578,-9.586 -4.086,-9.617" />
            <path
               inkscape:connector-curvature="0"
               id="path5061"
               style="fill:#ffffff;fill-opacity:1;fill-rule:nonzero;stroke:none"
               d="m 101.453,179.488 c 10.055,-6.722 13.445,-16.617 13.445,-16.617 0,0 3.344,8.281 -1.23,14.703 9.145,2.66 25.027,-1.5 39.363,-7.109 21.032,-8.238 36.77,-10.977 52.793,-8.238 16.008,2.718 24.446,6.05 29.602,14.039 2.734,4.277 10.828,3.367 8.551,-3.039 -2.289,-6.414 -12.219,-24.719 -30.985,-29.774 -18.769,-5.019 -49.734,-13.433 -95.527,-1.969 -12.25,3.067 -41.0314,10.707 -52.7892,25.817 -2.3555,3.031 -2.9727,8.668 -3.082,9.558 -0.1368,1.094 0.582,1.657 3.1523,1.211 8.0703,-1.422 9.6055,1.66 12.6016,5.059 3.3086,0.437 14.9453,2.453 24.1053,-3.641" />
            <path
               inkscape:connector-curvature="0"
               id="path5063"
               style="fill:#409adb;fill-opacity:1;fill-rule:nonzero;stroke:none"
               d="m 240.609,174.527 c -13.992,-26.613 -41.054,-30.742 -69.379,-31.601 -11.484,-0.324 -22.964,1.105 -32.839,3.637 8.32,-0.844 16.937,-0.176 22.195,1.652 -2.051,10.672 -20.266,18.418 -32.969,19.109 -2.414,2.742 -3.101,6.305 -8.945,8.375 4.125,-3.773 3.789,-9.066 5.844,-11.797 10.39,-2.117 23.078,-4.769 29.191,-12.941 -2.16,-2.77 -20.957,-1.231 -31.219,1.109 -4.422,1.625 -9.027,4.293 -11.476,9.075 -4.895,-5.477 -12.6722,-3.512 -20.6682,0.476 -0.1133,3.106 -2.0235,5.828 -6.1524,6.633 0.8906,-1.359 1.125,-2.77 1.1367,-3.918 -9.039,5.199 -17.6445,11.566 -21.9687,11.234 -6.1328,-0.461 13.3828,-34.707 29.8672,-38.351 48.9574,-28.227 130.7654,-15.832 150.1524,31.808 2.73,6.875 0.32,11.34 -2.77,5.5" />
            <path
               inkscape:connector-curvature="0"
               id="path5065"
               style="fill:#ffffff;fill-opacity:1;fill-rule:nonzero;stroke:none"
               d="m 85.9844,164.797 c 0.2773,-2.977 -2.0703,-5.664 -5.2461,-5.969 -3.1641,-0.367 -5.9805,1.836 -6.2813,4.84 -0.289,3.004 2.043,5.691 5.2149,6 3.1758,0.309 5.9922,-1.863 6.3125,-4.871" />
            <path
               inkscape:connector-curvature="0"
               id="path5067"
               style="fill:#0d3258;fill-opacity:1;fill-rule:nonzero;stroke:none"
               d="m 83.2188,164.23 c 0,-1.476 -1.3555,-2.648 -3.0274,-2.648 -1.6367,0 -2.9883,1.172 -2.9883,2.648 0,1.469 1.3516,2.672 2.9883,2.672 1.6719,0 3.0274,-1.203 3.0274,-2.672" />
            <path
               inkscape:connector-curvature="0"
               id="path5069"
               style="fill:#ffffff;fill-opacity:1;fill-rule:nonzero;stroke:none"
               d="m 223.523,213.031 c -3.363,-11.586 10.989,-27.218 10.989,-27.218 0,0 -6.492,20.277 -10.989,27.218" />
            <path
               inkscape:connector-curvature="0"
               id="path5071"
               style="fill:#ffffff;fill-opacity:1;fill-rule:nonzero;stroke:none"
               d="m 233.594,210.543 c -4.934,-6.777 4.344,-22.23 4.344,-22.23 0,0 -0.512,12.351 -4.344,22.23" />
            <path
               inkscape:connector-curvature="0"
               id="path5073"
               style="fill:#ffffff;fill-opacity:1;fill-rule:nonzero;stroke:none"
               d="m 249.137,192.906 c 3.906,8.473 11.699,16.934 19.949,19.926 -17.191,-2.078 -21.074,-13.508 -19.949,-19.926" />
            <path
               inkscape:connector-curvature="0"
               id="path5075"
               style="fill:#ffffff;fill-opacity:1;fill-rule:nonzero;stroke:none"
               d="m 155.496,449.816 c -7.25,14.047 -17.613,3.227 -35.773,8.848 -3.207,-14.859 -6.418,-41.445 -7.325,-46.016 12.403,-3.73 23.321,7.872 38.137,-1.793 -1.59,19.168 4.594,35.137 4.594,35.137 0,0 0.187,2.344 0.367,3.824" />
            <path
               inkscape:connector-curvature="0"
               id="path5077"
               style="fill:#a3e1f9;fill-opacity:1;fill-rule:nonzero;stroke:none"
               d="m 155.547,449.867 c -1.442,2.492 -2.82,4.606 -5.219,5.969 -2.137,-22.816 -2.672,-27.77 -9.918,-41.168 4.508,-0.57 7.828,-2.234 10.149,-3.871 -1.618,19.203 4.968,34.281 4.968,34.281 0,0 -0.031,3.981 0.02,4.789" />
            <path
               inkscape:connector-curvature="0"
               id="path5079"
               style="fill:#ffffff;fill-opacity:1;fill-rule:nonzero;stroke:none"
               d="m 191.324,458.73 c -18.156,-5.621 -28.547,5.196 -35.777,-8.863 -0.02,-4.789 -0.035,-40.207 0.027,-42.851 17.414,16.265 29.36,1.578 43.078,5.699 -0.918,4.57 -4.125,31.144 -7.328,46.015" />
            <path
               inkscape:connector-curvature="0"
               id="path5081"
               style="fill:#fccc22;fill-opacity:1;fill-rule:nonzero;stroke:none"
               d="m 150.488,369.16 10.0977,0 0,11.7383 -10.0977,0 0,-11.7383 z" />
            <path
               inkscape:connector-curvature="0"
               id="path5083"
               style="fill:#fccc22;fill-opacity:1;fill-rule:nonzero;stroke:none"
               d="m 155.598,392.148 5.027,-8.777 -10.187,-0.051 5.16,8.828" />
            <path
               inkscape:connector-curvature="0"
               id="path5085"
               style="fill:#199445;fill-opacity:1;fill-rule:nonzero;stroke:none"
               d="m 70.6367,357.48 0,0.071 c -0.082,0.031 -0.0742,-0.012 0,-0.071" />
            <path
               inkscape:connector-curvature="0"
               id="path5087"
               style="fill:#73c82c;fill-opacity:1;fill-rule:nonzero;stroke:none"
               d="m 111.27,299.977 c 0,0 13.851,6.836 15.222,13.871 -4.285,4.117 -15.113,4.57 -15.113,4.57 0,0 12.434,9.469 11.91,16.34 -6.211,2.89 -17.266,1.203 -17.266,1.203 5.133,7.105 6.594,12.746 6.395,17.707 -6.465,1.074 -16.4414,-2.754 -16.4414,-2.754 0,0 3.3437,11.922 0.0547,18.102 -5.9766,1.597 -14.4102,-8.938 -14.4102,-8.938 0,0 -3,13.031 -9.9961,19.965 -7.0156,-6.934 -10.0937,-19.965 -10.0937,-19.965 0,0 -8.418,10.535 -14.4258,8.938 -3.25,-6.18 0.082,-18.102 0.082,-18.102 0,0 -9.9766,3.828 -16.4727,2.754 -0.1718,-4.961 1.2969,-10.602 6.4258,-17.707 0,0 -11.082,1.687 -17.2617,-1.203 -0.5234,-6.871 11.9024,-16.34 11.9024,-16.34 0,0 -10.8438,-0.453 -15.1133,-4.57 1.3789,-7.035 15.2383,-13.871 15.2383,-13.871 0,0 -8.254,-1.696 -13.2852,-7.403 3.207,-4.261 10.4297,-8.336 16.0781,-9.269 -4.8828,-3.934 -7.6172,-7.004 -8.8515,-9.301 7.9336,-6.41 24.5625,-7.32 41.1914,-2.141 0,-3.179 0.0507,-28.843 -3.8438,-40.601 l 16.7617,0 c -3.8789,11.758 -3.8359,37.422 -3.8359,40.601 16.6289,-5.179 33.2809,-4.269 41.1879,2.141 -1.25,2.297 -3.954,5.367 -8.825,9.301 5.641,0.933 12.844,5.008 16.055,9.269 -5.047,5.707 -13.269,7.403 -13.269,7.403" />
            <path
               inkscape:connector-curvature="0"
               id="path5089"
               style="fill:#199948;fill-opacity:1;fill-rule:nonzero;stroke:none"
               d="m 96.1211,299.516 c 1.5625,0.867 9.6089,3.32 13.7229,10.496 -4.114,3.988 -13.7229,4.133 -13.7229,4.133 0,0 8.5509,5.628 11.4419,14.058 -7.333,2.133 -14.9497,0 -14.9497,0 0,0 6.25,8.86 7.0195,16.328 -7.0195,-0.765 -14.4922,-4.465 -14.4922,-4.465 2.1211,4.618 3.1914,11.145 2.2774,16.821 -3.5078,-0.692 -6.7032,-4.696 -8.625,-7.192 -1.7813,5.688 -4.8047,7.477 -6.8711,8.625 -3.4219,-5.027 -4.1055,-8.285 -3.6797,-15.172 1.1562,1.145 2.9844,2.961 5.9726,4.672 1.8165,-9.824 -1.6796,-16.968 -1.6796,-16.968 0,0 4.3242,2.824 10.0546,3.496 0.2383,-5.41 -1.75,-11.035 -7.4687,-17.672 0,0 5.0312,3.035 10.8477,3.5 -0.9297,-7.637 -5.5938,-12.738 -10.4024,-17.102 3.207,1.512 8.7109,1.367 12.5195,0.145 -1.9726,-5.797 -6.5,-8.711 -13.1054,-12.344 4.0937,0 8.3008,-0.543 10.6601,-2.137 -2.6562,-4.968 -9.1406,-7.332 -13.6367,-8.617 10.3828,-3.961 20.4414,-5.609 30.2931,-3.223 -0.688,2.938 -4.422,6.504 -8.7775,9.004 3.9805,0.911 9.9185,2.149 15.1135,6.582 -3.36,3.36 -7.485,5.637 -12.5119,7.032" />
            <path
               inkscape:connector-curvature="0"
               id="path5091"
               style="fill:#a3e1f9;fill-opacity:1;fill-rule:nonzero;stroke:none"
               d="M 40.4688,75.7227 C 42.8242,67.8711 36.543,52.668 41.0078,43.8984 37.1992,44.0234 12.9688,39.5898 9.39453,42.7266 5.85938,45.8594 -3.5625,52.5508 5.85938,57.6758 15.3008,62.7734 39.1602,71.9414 40.4688,75.7227" />
            <path
               inkscape:connector-curvature="0"
               id="path5093"
               style="fill:#a3e1f9;fill-opacity:1;fill-rule:nonzero;stroke:none"
               d="m 271.699,76.5234 c 2.774,-25.1562 -1.449,-27.9882 -1.191,-35.2148 2.367,-0.6172 21.633,-4.6172 28.437,-0.9648 6.809,3.6796 11.524,12.5859 8.375,16.25 -3.14,3.6796 -18.843,13.6328 -25.129,14.6757 -6.289,1.0743 -8.777,3.3985 -10.492,5.2539" />
            <path
               inkscape:connector-curvature="0"
               id="path5095"
               style="fill:#0d3258;fill-opacity:1;fill-rule:nonzero;stroke:none"
               d="M 301.777,64.3867 C 291.313,70 275.77,73.3906 266.992,85.3984 c -3.301,-12.0859 4.692,-19.0312 4.371,-36.8125 7.403,13.8086 1.309,17.2071 2.559,23.75 5.957,-7.5898 14.891,-8.6914 21.129,-11.9375 7.957,-4.1601 12.836,-13.3476 -3.637,-13.289 -32.172,0.0703 -238.6367,-0.0469 -271.5156,-0.0469 -17.00387,0 -12.02731,9.1289 -4.0625,13.2813 6.2461,3.25 15.2852,4.3437 21.2227,12.1445 1.2422,-6.5313 -4.918,-9.8906 2.5117,-23.711 -0.332,17.793 7.586,24.4375 4.4453,36.6211 C 35.2422,73.3906 19.4531,70 8.96875,64.3867 0.0625,59.6484 0.0429688,56.4844 0.0429688,41.2305 0.0429688,31.0078 0.09375,18.0977 0,9.44141 -0.0585938,3.36719 7.01172,-0.226563 15.4492,0.0117188 c 38.6758,0 241.1678,0 279.8558,0 8.418,-0.2382818 15.597,3.2695312 15.597,9.3437512 0.051,8.67183 -0.089,21.73833 0,31.95313 0.129,15.6836 -0.226,18.3398 -9.125,23.0781" />
            <path
               inkscape:connector-curvature="0"
               id="path5097"
               style="fill:#ffffff;fill-opacity:1;fill-rule:nonzero;stroke:none"
               d="m 15.5898,33.8867 5.9922,0 4.1641,-11.6015 c 0.0898,-0.2344 0.3203,-1.1719 0.6758,-2.7735 0.3984,1.6016 0.6445,2.5391 0.7461,2.7735 l 4.0781,11.6015 6.0195,0 -8.6758,-20.7344 -4.2929,0 -8.7071,20.7344" />
            <path
               inkscape:connector-curvature="0"
               id="path5099"
               style="fill:#ffffff;fill-opacity:1;fill-rule:nonzero;stroke:none"
               d="m 40.5313,13.1523 5.73438,0 0,20.7344 -5.73438,0 0,-20.7344 z" />
            <path
               inkscape:connector-curvature="0"
               id="path5101"
               style="fill:#ffffff;fill-opacity:1;fill-rule:nonzero;stroke:none"
               d="m 63.3438,20.8672 -2.1055,6.8476 c -0.0938,0.3438 -0.3438,1.2696 -0.711,2.8047 -0.375,-1.5351 -0.6289,-2.4609 -0.7226,-2.8047 l -2.0859,-6.8476 5.625,0 z m -6.375,13.0195 7.0742,0 7.1523,-20.7344 -5.6289,0 -1.0273,3.7344 -8.0235,0 -1.0898,-3.7344 -5.6055,0 7.1485,20.7344" />
            <path
               inkscape:connector-curvature="0"
               id="path5103"
               style="fill:#ffffff;fill-opacity:1;fill-rule:nonzero;stroke:none"
               d="m 82.3711,33.8867 6.0078,0 4.1406,-11.6015 c 0.0977,-0.2344 0.3086,-1.1719 0.6993,-2.7735 0.3671,1.6016 0.6289,2.5391 0.7148,2.7735 l 4.1172,11.6015 5.9922,0 -8.6875,-20.7344 -4.2813,0 -8.7031,20.7344" />
            <path
               inkscape:connector-curvature="0"
               id="path5105"
               style="fill:#ffffff;fill-opacity:1;fill-rule:nonzero;stroke:none"
               d="m 107.172,33.8867 12.699,0 0,-4.5625 -7.199,0 0,-3.6015 6.785,0 0,-4.4219 -6.785,0 0,-3.5078 7.199,0 0,-4.6407 -12.699,0 0,20.7344" />
            <path
               inkscape:connector-curvature="0"
               id="path5107"
               style="fill:#ffffff;fill-opacity:1;fill-rule:nonzero;stroke:none"
               d="m 131.402,24.082 c 2.36,0 3.496,0.7422 3.496,2.5782 0,2.1562 -1.07,2.8515 -3.414,2.8515 l -1.136,0 0,-5.4297 1.054,0 z m -6.363,9.8047 5.918,0 c 0.121,0 0.227,0 0.344,0 2.863,0 5.078,-0.0273 6.859,-1.3984 1.481,-1.1602 2.289,-2.918 2.289,-5.0938 0,-3.1953 -1.605,-5.2382 -4.621,-5.9023 l 5.649,-8.3399 -6.379,0 -4.75,8.125 0,-8.125 -5.309,0 0,20.7344" />
            <path
               inkscape:connector-curvature="0"
               id="path5109"
               style="fill:#ffffff;fill-opacity:1;fill-rule:nonzero;stroke:none"
               d="m 145.211,13.1523 5.71094,0 0,20.7344 -5.71094,0 0,-20.7344 z" />
            <path
               inkscape:connector-curvature="0"
               id="path5111"
               style="fill:#ffffff;fill-opacity:1;fill-rule:nonzero;stroke:none"
               d="m 159.902,28.9844 -4.609,0 0,4.9023 14.895,0 0,-4.9023 -4.641,0 0,-15.8321 -5.645,0 0,15.8321" />
            <path
               inkscape:connector-curvature="0"
               id="path5113"
               style="fill:#ffffff;fill-opacity:1;fill-rule:nonzero;stroke:none"
               d="m 185.48,20.8672 -2.121,6.8476 c -0.093,0.3438 -0.312,1.2696 -0.695,2.8047 -0.363,-1.5351 -0.633,-2.4609 -0.738,-2.8047 l -2.071,-6.8476 5.625,0 z m -6.375,13.0195 7.047,0 7.164,-20.7344 -5.601,0 -1.059,3.7344 -8.011,0 -1.071,-3.7344 -5.636,0 7.167,20.7344" />
            <path
               inkscape:connector-curvature="0"
               id="path5115"
               style="fill:#ffffff;fill-opacity:1;fill-rule:nonzero;stroke:none"
               d="m 202.605,17.0234 c 1.551,0 2.583,0.9063 2.583,2.125 0,1.6641 -1.133,2.1524 -3.493,2.7774 -3.715,0.957 -5.543,2.4609 -5.543,5.7031 0,3.8555 2.801,6.7266 7.161,6.7266 2.312,0 4.328,-0.5938 6.113,-1.8438 l -1.766,-4.0429 c -1.293,1.1015 -2.676,1.6406 -3.961,1.6406 -1.386,0 -2.297,-0.7539 -2.297,-1.7305 0,-1.4844 1.442,-1.8086 3.309,-2.3047 3.668,-0.9765 5.719,-2.3359 5.719,-6.1719 0,-4.289 -3.086,-7.3046 -7.946,-7.3046 -2.918,0 -5.14,0.9492 -7.351,3.0468 l 2.543,4.1993 c 1.66,-1.8829 3.285,-2.8204 4.929,-2.8204" />
            <path
               inkscape:connector-curvature="0"
               id="path5117"
               style="fill:#ffffff;fill-opacity:1;fill-rule:nonzero;stroke:none"
               d="m 222.781,33.8867 6.004,0 4.149,-11.6015 c 0.078,-0.2344 0.32,-1.1719 0.675,-2.7735 0.391,1.6016 0.637,2.5391 0.727,2.7735 l 4.117,11.6015 6.012,0 -8.695,-20.7344 -4.286,0 -8.703,20.7344" />
            <path
               inkscape:connector-curvature="0"
               id="path5119"
               style="fill:#ffffff;fill-opacity:1;fill-rule:nonzero;stroke:none"
               d="m 247.73,13.1523 5.71094,0 0,20.7344 -5.71094,0 0,-20.7344 z" />
            <path
               inkscape:connector-curvature="0"
               id="path5121"
               style="fill:#ffffff;fill-opacity:1;fill-rule:nonzero;stroke:none"
               d="m 262.422,28.9844 -4.602,0 0,4.9023 14.891,0 0,-4.9023 -4.648,0 0,-15.8321 -5.641,0 0,15.8321" />
            <path
               inkscape:connector-curvature="0"
               id="path5123"
               style="fill:#ffffff;fill-opacity:1;fill-rule:nonzero;stroke:none"
               d="m 287.992,20.8672 -2.125,6.8476 c -0.082,0.3438 -0.297,1.2696 -0.668,2.8047 -0.402,-1.5351 -0.644,-2.4609 -0.734,-2.8047 l -2.07,-6.8476 5.597,0 z m -6.371,13.0195 7.07,0 7.153,-20.7344 -5.625,0 -1.035,3.7344 -8.016,0 -1.094,-3.7344 -5.609,0 7.156,20.7344" />
            <path
               inkscape:connector-curvature="0"
               id="path5125"
               style="fill:#df9824;fill-opacity:1;fill-rule:nonzero;stroke:none"
               d="m 166.773,97.4766 c 1.372,-1.6368 2.309,-9.3086 -4.347,-9.8555 -11.453,-0.8984 -16.961,0.2461 -16.961,0.2461 0,0 15.359,1.8047 21.308,9.6094" />
            <path
               inkscape:connector-curvature="0"
               id="path5127"
               style="fill:#df9824;fill-opacity:1;fill-rule:nonzero;stroke:none"
               d="m 218.418,332.703 c 0.699,9.399 5.137,11.59 11.227,11.453 3.418,-0.086 8.582,-0.129 21.097,-0.031 -7.047,-0.625 -15.836,-4.328 -16.976,-13.496 -1.071,-8.516 -1.137,-38.012 -1.348,-50.586 -6.184,-0.234 -14.453,-0.016 -16.281,-0.48 0.902,13.054 1.593,43.75 2.281,53.14" />
            <path
               inkscape:connector-curvature="0"
               id="path5129"
               style="fill:#df9824;fill-opacity:1;fill-rule:nonzero;stroke:none"
               d="m 155.641,369.16 3.06641,0 0,11.7383 -3.06641,0 0,-11.7383 z" />
            <path
               inkscape:connector-curvature="0"
               id="path5131"
               style="fill:#df9824;fill-opacity:1;fill-rule:nonzero;stroke:none"
               d="m 158.707,383.32 -3.109,8.828 0,-8.777 3.109,-0.051" />
          </g>
        </g>
      </g>
    </g>
  </g>
</svg>
