<?xml version="1.0" encoding="UTF-8" standalone="no"?>
<!-- Created with Inkscape (http://www.inkscape.org/) -->

<svg
   xmlns:dc="http://purl.org/dc/elements/1.1/"
   xmlns:cc="http://creativecommons.org/ns#"
   xmlns:rdf="http://www.w3.org/1999/02/22-rdf-syntax-ns#"
   xmlns:svg="http://www.w3.org/2000/svg"
   xmlns="http://www.w3.org/2000/svg"
   xmlns:sodipodi="http://sodipodi.sourceforge.net/DTD/sodipodi-0.dtd"
   xmlns:inkscape="http://www.inkscape.org/namespaces/inkscape"
   width="210mm"
   height="297mm"
   viewBox="0 0 744.09448819 1052.3622047"
   id="svg5222"
   version="1.1"
   inkscape:version="0.91 r13725"
   sodipodi:docname="uog_bw_lowq.svg">
  <defs
     id="defs5224" />
  <sodipodi:namedview
     id="base"
     pagecolor="#ffffff"
     bordercolor="#666666"
     borderopacity="1.0"
     inkscape:pageopacity="0.0"
     inkscape:pageshadow="2"
     inkscape:zoom="1.979899"
     inkscape:cx="-159.9585"
     inkscape:cy="516.65589"
     inkscape:document-units="px"
     inkscape:current-layer="layer1"
     showgrid="false"
     inkscape:window-width="732"
     inkscape:window-height="405"
     inkscape:window-x="5230"
     inkscape:window-y="829"
     inkscape:window-maximized="0" />
  <metadata
     id="metadata5227">
    <rdf:RDF>
      <cc:Work
         rdf:about="">
        <dc:format>image/svg+xml</dc:format>
        <dc:type
           rdf:resource="http://purl.org/dc/dcmitype/StillImage" />
        <dc:title></dc:title>
      </cc:Work>
    </rdf:RDF>
  </metadata>
  <g
     inkscape:label="Layer 1"
     inkscape:groupmode="layer"
     id="layer1">
    <path
       style="fill:#000000"
       d="m -220.70779,554.92696 -18.24472,-0.009 -0.525,-0.30578 -0.525,-0.30578 0,-3.00482 0,-3.00481 0.3254,-0.60803 0.32541,-0.60802 1.69959,-0.74728 c 0.93478,-0.41101 2.02231,-1.03977 2.41673,-1.39726 l 0.71713,-0.64997 -0.18416,1.62703 -0.18415,1.62702 -0.34287,0.32298 -0.34287,0.32297 0.13294,-0.975 c 0.0731,-0.53625 0.0927,-0.975 0.0434,-0.975 -0.0492,0 -0.81501,0.32086 -1.70176,0.71302 l -1.61227,0.71302 -0.19055,0.49658 -0.19056,0.49659 0.78229,0.29742 0.78229,0.29743 17.34713,-0.082 17.34713,-0.082 0.37699,-0.37714 0.377,-0.37715 -0.43715,-0.43621 c -0.24043,-0.23992 -1.07839,-0.76059 -1.86214,-1.15705 l -1.425,-0.72084 -0.0268,1.23419 -0.0268,1.2342 -0.41739,-1.5 c -0.22956,-0.825 -0.41999,-1.75717 -0.42317,-2.0715 l -0.006,-0.57149 0.525,0.46318 c 0.28875,0.25475 1.50375,0.95237 2.7,1.55027 l 2.175,1.08708 0,3.43568 0,3.43567 -0.58028,0.31056 -0.58027,0.31055 -18.24473,-0.009 z m -15.98289,-1.49088 0.33644,0 0.50086,-1.275 0.50087,-1.275 0.15,1.1971 0.15,1.19709 0.54247,0.10327 0.54248,0.10326 -0.0925,-1.44259 -0.0925,-1.44259 -1.01178,-0.0495 -1.01178,-0.0495 -0.14821,0.56674 -0.14821,0.56675 -0.26501,0 -0.26501,0 0,-0.43229 c 0,-0.23777 -0.14676,-0.523 -0.32614,-0.63387 l -0.32614,-0.20156 -0.23924,0.25886 -0.23923,0.25886 0.55307,1.275 0.55308,1.275 0.33643,0 z m 3.14224,0 c 0.0847,0 0.43988,-0.16875 0.7892,-0.375 l 0.63512,-0.375 0.13581,0.375 0.1358,0.375 0.44522,0 0.44521,0 -0.20269,-0.675 c -0.11148,-0.37125 -0.35683,-1.00253 -0.54521,-1.40285 -0.18839,-0.40031 -0.5132,-0.78345 -0.7218,-0.85142 l -0.37927,-0.12358 -0.44573,1.06679 c -0.24515,0.58673 -0.44573,1.27363 -0.44573,1.52642 0,0.2528 0.0693,0.45964 0.15407,0.45964 z m 1.19593,-1.2 c -0.0825,0 -0.15,-0.0675 -0.15,-0.15 0,-0.0825 0.0675,-0.15 0.15,-0.15 0.0825,0 0.15,0.0675 0.15,0.15 0,0.0825 -0.0675,0.15 -0.15,0.15 z m 4.02398,1.2 0.30332,0 0.58607,-1.275 0.58607,-1.275 0.0253,1.275 0.0253,1.275 0.87994,0 0.87993,0 -0.0256,-0.9 -0.0256,-0.9 -0.47935,-0.0348 -0.47934,-0.0348 0.525,-0.1372 0.525,-0.1372 0,-0.43152 0,-0.43153 -1.34377,0.0877 -1.34376,0.0877 -0.41822,0.57195 -0.41822,0.57194 -0.20823,-0.65608 -0.20823,-0.65608 -0.26208,0 c -0.14414,0 -0.32835,0.10723 -0.40934,0.23828 l -0.14727,0.23827 0.56489,1.26173 0.5649,1.26172 0.30331,0 z m 4.97602,-0.06 1.05,0 0,-0.25229 c 0,-0.13877 -0.13223,-0.33403 -0.29386,-0.43391 l -0.29385,-0.18162 0.36885,-0.60436 0.36886,-0.60436 -0.58234,-0.43173 -0.58234,-0.43173 -0.54266,0 -0.54266,0 0,1.47 0,1.47 1.05,0 z m 0,-1.74 c -0.0825,0 -0.15,-0.0675 -0.15,-0.15 0,-0.0825 0.0675,-0.15 0.15,-0.15 0.0825,0 0.15,0.0675 0.15,0.15 0,0.0825 -0.0675,0.15 -0.15,0.15 z m 1.78356,1.8 0.46644,0 0,-1.525 0,-1.525 -0.375,0.12345 -0.375,0.12345 -0.0914,1.40155 -0.0914,1.40155 0.46643,0 z m 1.81644,0 0.45,0 0,-1.05 0,-1.05 0.3,0 0.3,0 0,-0.45 0,-0.45 -0.88229,0 -0.8823,0 -0.22082,0.35729 -0.22082,0.3573 0.35312,0.11771 0.35311,0.1177 0,1.025 0,1.025 0.45,0 z m 1.45821,0 c 0.20449,0 0.52807,-0.15628 0.71908,-0.34729 l 0.34728,-0.34728 0.38772,0.31836 0.38771,0.31836 1.35,-0.0461 1.35,-0.0461 0.096,-0.67634 0.096,-0.67634 -0.49619,-0.19041 -0.4962,-0.19041 0.39765,-0.24576 0.39765,-0.24576 -0.38075,-0.38074 -0.38075,-0.38076 -0.51675,0.32904 -0.51674,0.32904 0,0.76256 c 0,0.41941 -0.0884,0.85171 -0.19645,0.96067 l -0.19645,0.19811 -0.19783,-0.90072 -0.19784,-0.90072 -0.41757,-0.34656 -0.41758,-0.34655 -0.28506,0.17617 c -0.15678,0.0969 -0.492,0.78352 -0.74493,1.52583 l -0.45987,1.34965 0.37179,0 z m 3.49179,-0.9 -0.4,0 0.2,-0.2 0.2,-0.2 0.2,0.2 0.2,0.2 -0.4,0 z m -2.25,-0.3 c -0.0825,0 -0.15,-0.0675 -0.15,-0.15 0,-0.0825 0.0675,-0.15 0.15,-0.15 0.0825,0 0.15,0.0675 0.15,0.15 0,0.0825 -0.0675,0.15 -0.15,0.15 z m 6.28057,1.19887 0.31943,-10e-4 0.525,-1.27702 c 0.28875,-0.70237 0.525,-1.37686 0.525,-1.49888 0,-0.12194 -0.19993,-0.22177 -0.44428,-0.22177 l -0.44429,0 -0.19928,0.79399 -0.19928,0.794 -0.41601,-0.794 -0.41602,-0.79399 -0.29042,0 -0.29042,0 0,0.43982 c 0,0.2419 0.22751,0.9169 0.50557,1.5 l 0.50556,1.06018 0.31944,-10e-4 z m 2.13587,0.001 0.46644,0 -0.0914,-1.40154 -0.0914,-1.40155 -0.375,-0.12345 -0.375,-0.12346 0,1.52501 0,1.52499 0.46644,0 z m 1.78356,0 0.45,0 0,-1.025 0,-1.02499 0.35312,-0.11771 0.35311,-0.1177 -0.22082,-0.3573 -0.22082,-0.35737 -0.71459,0 -0.71459,0 -0.22082,0.35729 -0.22082,0.3573 0.35312,0.11771 0.35311,0.1177 0,1.025 0,1.025 0.45,0 z m 1.475,0 0.425,0 0.1358,-0.375 0.13581,-0.375 0.66841,0.39579 0.66841,0.39579 0.1825,-0.1825 0.1825,-0.1825 -0.43672,-1.26001 -0.43671,-1.26001 -0.4915,-0.0938 -0.4915,-0.0938 -0.4835,1.41899 c -0.26592,0.78037 -0.4835,1.46237 -0.4835,1.51547 0,0.0531 0.19125,0.0966 0.425,0.0966 z m 0.925,-1.20007 c -0.0825,0 -0.15,-0.0675 -0.15,-0.15 0,-0.0825 0.0675,-0.15 0.15,-0.15 0.0825,0 0.15,0.0675 0.15,0.15 0,0.0825 -0.0675,0.15 -0.15,0.15 z m 20.84176,2.39299 -1.65825,0.007 -0.68382,-0.47897 -0.68383,-0.47896 0.0921,-0.64604 0.0921,-0.64603 0.81433,-0.0939 0.81434,-0.0939 1.36546,0.80021 1.36547,0.80022 0.69646,-0.1748 c 0.38305,-0.0961 1.04734,-0.45081 1.4762,-0.78815 l 0.77975,-0.61335 0.65171,-1.71817 0.65172,-1.71817 1.40861,-8.03367 c 0.77474,-4.41852 1.34501,-8.09727 1.26728,-8.175 -0.0777,-0.0777 -0.68133,-0.14134 -1.34133,-0.14134 l -1.2,0 0.22281,-0.22281 c 0.12255,-0.12255 0.77377,-0.3588 1.44715,-0.525 l 1.22434,-0.30219 0.55762,-2.04631 c 0.3067,-1.12547 0.84496,-2.61047 1.19614,-3.3 0.35118,-0.68953 0.97766,-1.69913 1.39217,-2.24356 l 0.75366,-0.98986 1.31385,-0.76996 1.31384,-0.76997 1.47748,-0.0223 1.47747,-0.0223 0.61174,0.55362 0.61173,0.55361 0,0.51677 0,0.51677 -0.41197,0.34191 -0.41198,0.34191 -0.56302,-0.20399 c -0.30966,-0.1122 -0.94506,-0.46891 -1.412,-0.79268 l -0.84898,-0.58868 -0.74177,0 -0.74177,0 -0.72446,0.68059 -0.72445,0.68059 -0.45341,1.38191 c -0.24937,0.76005 -0.65878,2.36949 -0.90979,3.57652 -0.25102,1.20704 -0.4564,2.32079 -0.4564,2.475 l 0,0.28039 1.5,0 1.5,0 0,0.45 0,0.45 -1.48229,0 -1.4823,0 -0.19237,0.31126 c -0.1058,0.1712 -0.71866,3.26826 -1.36191,6.88236 l -1.16953,6.5711 -0.75853,1.89264 -0.75853,1.89264 -1.13213,1.5 -1.13214,1.5 -1.49013,0.81799 -1.49014,0.81799 -1.65824,0.007 z m 85.208244,-0.0675 -3.150004,0.0948 -1.25079,-0.58459 -1.2508,-0.5846 -0.3242,-0.60578 -0.32421,-0.60579 0,-0.89518 c 0,-0.49236 0.0791,-1.10125 0.17572,-1.3531 l 0.17572,-0.45791 1.62428,-1.22634 c 0.89336,-0.67449 1.62428,-1.3401 1.62428,-1.47913 l 0,-0.25278 -0.90767,-0.18153 -0.90767,-0.18154 -0.7617,-0.7617 -0.7617,-0.76171 0.0944,-0.81926 0.0944,-0.81926 1.77259,-0.84433 1.77259,-0.84432 -0.88537,-0.53843 c -0.48696,-0.29614 -1.26489,-0.98945 -1.72872,-1.54069 l -0.84335,-1.00225 0.11806,-1.85398 0.11805,-1.85397 0.85553,-1.12167 0.85554,-1.12166 1.38254,-0.61594 1.382539,-0.61595 1.84167,0.0137 1.84167,0.0137 1.208115,0.679 1.208116,0.679 2.275215,-0.14601 2.275215,-0.14602 0,1.09575 0,1.09576 -1.725,-0.19859 c -0.94875,-0.10922 -1.762527,-0.16881 -1.808394,-0.13242 -0.04587,0.0364 0.05538,0.43119 0.225,0.87731 0.169617,0.44613 0.308394,1.16473 0.308394,1.59689 l 0,0.78575 -0.628815,1.29896 -0.628815,1.29896 -1.396186,0.81985 -1.396185,0.81985 -2.162382,0.0388 -2.162377,0.0388 -1.06262,0.62696 -1.06262,0.62696 0,0.47543 0,0.47542 0.975,0.39618 0.975,0.39617 4.095458,0.16216 4.09546,0.16215 0.704541,0.36385 c 0.387498,0.20012 1.006224,0.63858 1.374948,0.97435 l 0.670407,0.61049 0.184311,0.98246 0.184314,0.98247 -0.33537,1.01618 -0.33537,1.01618 -0.969351,0.93713 -0.969348,0.93714 -1.8,0.83158 -1.800001,0.83158 -3.15,0.0948 z m 1.706094,-0.88949 2.156094,-0.0957 1.293907,-0.9061 1.293906,-0.90609 0.579264,-1.0709 0.579261,-1.07089 -0.374538,-0.90422 -0.374541,-0.90422 -0.700413,-0.31913 -0.70041,-0.31913 -3.554314,-0.20264 -3.554314,-0.20265 -1.275,1.18678 -1.275,1.18677 0,0.90563 0,0.90562 0.59528,0.75677 0.59527,0.75677 1.27973,0.64952 1.279724,0.64952 2.156094,-0.0957 z m -0.707808,-12.66419 1.148283,-0.12091 0.61812,-0.55043 c 0.339966,-0.30273 0.801987,-0.98484 1.026717,-1.51578 l 0.408595,-0.96537 0,-1.21927 0,-1.21927 -0.461443,-1.10439 c -0.253791,-0.60741 -0.680232,-1.34614 -0.94764,-1.64163 l -0.486201,-0.53724 -1.141389,-0.30735 -1.141389,-0.30734 -0.985968,0.41721 -0.985975,0.4172 -0.56874,0.63836 -0.56875,0.63837 -0.1428,1.48619 -0.1428,1.48618 0.19848,1.05802 0.19849,1.05803 0.78859,0.93719 c 0.43373,0.51545 1.069608,1.05778 1.413066,1.20517 l 0.624468,0.26797 1.148286,-0.12091 z m -122.75383,6.95094 -1.99446,0.0888 -1.52839,-0.5439 c -0.84062,-0.29914 -2.48739,-1.11362 -3.65948,-1.80995 l -2.13108,-1.26605 -2.59063,-2.45224 -2.59062,-2.45225 -1.33191,-1.86649 -1.3319,-1.86651 -1.01554,-2.20208 -1.01553,-2.20208 -0.32746,-1.7801 -0.32746,-1.7801 0,-16.2949 0,-16.2949 19.36133,0 19.36133,0 -0.0863,17.625 -0.0863,17.625 -0.79362,1.88364 c -0.43648,1.036 -1.24648,2.63449 -1.8,3.55221 -0.5535,0.91772 -1.71622,2.53155 -2.5838,3.5863 l -1.57741,1.91772 -2.17259,1.81377 -2.17258,1.81377 -2.80554,1.40821 -2.80554,1.40822 -1.99446,0.0889 z m -0.49446,-2.64838 1.8,-0.0165 0.58009,-0.22716 0.58009,-0.22717 -0.35509,-0.21945 -0.35509,-0.21945 0,-0.8358 0,-0.8358 -0.58883,-0.53288 -0.58882,-0.53288 -0.45157,0.17328 -0.45156,0.17328 -0.17732,-0.28689 -0.17731,-0.2869 -0.58229,0 -0.5823,0 0,0.41327 0,0.41326 -0.4471,0.37106 -0.4471,0.37106 0.17141,0.68295 0.17141,0.68294 -0.35634,0.22023 -0.35634,0.22023 0.40703,0.25791 0.40703,0.2579 1.8,-0.0165 z m 0.5073,-1.47617 -0.8073,-0.002 0.86964,-0.45352 c 0.47829,-0.24943 0.93056,-0.39258 1.00504,-0.31811 0.0745,0.0745 0.0464,0.27939 -0.0623,0.45537 l -0.19775,0.31991 -0.80729,-0.002 z m 2.5427,-2.39815 1.9,0 0,-0.24 c 0,-0.132 -0.15975,-0.39975 -0.355,-0.595 -0.19525,-0.19525 -0.2965,-0.391 -0.225,-0.435 0.0715,-0.044 0.91631,-0.47307 1.87735,-0.95348 l 1.74735,-0.87348 1.30423,-1.26757 1.30424,-1.26757 0.62341,-1.222 0.62342,-1.222 0,-0.64003 0,-0.64004 -0.59662,-0.15602 -0.59663,-0.15602 0.16433,-0.2659 0.16433,-0.26589 0.5823,0 0.58229,0 0,0.64028 0,0.64028 1.575,-1.62871 1.575,-1.62872 0.975,-0.39796 0.975,-0.39796 0,-0.25001 0,-0.25001 -1.05222,-0.1974 -1.05222,-0.1974 -1.53243,0.50123 -1.53243,0.50124 -1.48839,-0.31921 c -0.81861,-0.17556 -1.74802,-0.45815 -2.06534,-0.62798 l -0.57697,-0.30878 0,0.88009 0,0.88009 0.92095,1.75074 0.92094,1.75075 -0.64495,0.52224 c -0.35472,0.28724 -1.1404,0.65986 -1.74595,0.82805 -0.60554,0.16819 -1.333,0.30656 -1.61657,0.30748 l -0.51559,0.002 0.17268,-0.45 0.17268,-0.45 -2.13209,0 -2.1321,0 0,-0.45 0,-0.45 -0.3,0 -0.3,0 -0.004,0.375 -0.004,0.375 -0.38281,-0.75 -0.3828,-0.75 1.06223,-0.15 1.06222,-0.15 0.0902,-0.77568 0.0902,-0.77568 -0.46517,-0.38605 -0.46517,-0.38606 0,-1.89556 0,-1.89556 -0.3,-0.18541 -0.3,-0.18541 -0.055,2.1927 -0.055,2.19271 -0.16998,-2.4 -0.16999,-2.4 0.6,-0.10375 c 0.33,-0.0571 0.76875,-0.24234 0.975,-0.41173 l 0.375,-0.30799 0,-0.72268 0,-0.72268 -0.45,-0.17268 -0.45,-0.17268 0,-1.9002 0,-1.9002 -0.3,-0.18541 -0.3,-0.18541 -0.054,2.0427 -0.054,2.04271 -0.17096,-2.25 -0.17095,-2.25 0.9,-0.3 0.9,-0.3 0.0991,-0.69974 0.0991,-0.69974 -0.52061,-0.57526 -0.5206,-0.57526 0.34649,0 0.3465,0 0,-1.7823 0,-1.78229 -0.3,-0.18541 -0.3,-0.18541 0,-0.8823 0,-0.88229 -0.3,0 -0.3,0 -0.005,-0.975 -0.005,-0.975 -0.28291,-0.44749 -0.28291,-0.44749 -0.33234,0.33233 -0.33233,0.33233 -0.15497,1.01516 c -0.0852,0.55834 -0.2788,1.14341 -0.43016,1.30016 l -0.27519,0.285 0,0.67229 0,0.6723 -0.3,0.18541 -0.3,0.18541 0,1.57229 0,1.5723 0.35291,0.35291 0.35291,0.35291 -0.50291,0.55571 c -0.2766,0.30564 -0.50291,0.6973 -0.50291,0.87036 0,0.17305 0.2025,0.4827 0.45,0.68811 l 0.45,0.37347 0,2.41464 0,2.41465 -0.51729,0.5716 -0.5173,0.5716 0.5173,0.90133 0.51729,0.90133 0,2.05138 0,2.05138 -0.51729,0.90133 -0.5173,0.90133 0.5173,0.5716 c 0.28451,0.31438 0.51729,0.7466 0.51729,0.96048 l 0,0.38888 -0.975,-0.20286 c -0.53625,-0.11157 -1.63298,-0.28423 -2.43718,-0.38369 l -1.46218,-0.18083 0.55793,0.87119 0.55793,0.87119 -1.12625,-0.97067 -1.12625,-0.97066 -0.72745,-0.18258 -0.72745,-0.18258 -0.28907,0.17866 -0.28907,0.17866 0.14975,-0.57268 0.14976,-0.57268 -0.63461,-0.63461 -0.63461,-0.63461 -0.61007,0.3265 -0.61007,0.3265 -0.18617,0.50537 c -0.1024,0.27796 -0.33036,0.6013 -0.5066,0.71853 l -0.32042,0.21316 0.59854,0.4523 0.59854,0.45231 -0.675,0.01 -0.675,0.01 0,0.31195 c 0,0.17157 0.28785,0.87618 0.63966,1.5658 0.35182,0.68961 0.92557,1.64488 1.275,2.12282 l 0.63534,0.86898 1.6668,1.13688 c 0.91675,0.62529 2.19363,1.357 2.83752,1.62604 l 1.1707,0.48915 2.71249,0.46677 c 1.49187,0.25673 2.76874,0.52186 2.83749,0.58919 0.0687,0.0673 0.98,0.12242 2.025,0.12242 z m -2.15,-1.98451 -2.1,0.14245 -1.74363,-0.27051 -1.74363,-0.27051 -1.85637,-0.80984 -1.85637,-0.80983 -1.00129,-0.92363 -1.00129,-0.92362 -0.59464,-1.15407 c -0.32705,-0.63474 -0.52789,-1.22082 -0.44632,-1.30239 0.0816,-0.0816 0.42015,-0.062 0.75239,0.0434 l 0.60406,0.19172 0.0935,0.80811 0.0935,0.8081 0.54626,0.10366 0.54627,0.10365 0.15647,-0.59835 0.15647,-0.59836 0.60196,0.60196 0.60195,0.60195 0.93908,-0.13782 0.93909,-0.13783 0.75622,0.53983 0.75623,0.53983 1.68873,0.19834 1.68873,0.19834 0.1837,-0.29722 0.18369,-0.29722 -0.69955,-0.45836 c -0.38475,-0.2521 -1.24561,-0.6054 -1.91303,-0.78512 l -1.2135,-0.32676 -0.16352,-0.62531 -0.16352,-0.62531 0.50414,0.44802 c 0.27727,0.24642 1.08282,0.61919 1.79011,0.8284 l 1.28598,0.38036 0.81402,0.75488 0.81402,0.75488 -1.05,0.2941 -1.05,0.29411 0.59809,0.13631 c 0.32895,0.075 1.94895,0.071 3.6,-0.009 l 3.00191,-0.14507 1.28305,-0.52678 1.28305,-0.52678 1.37079,-1.5392 1.3708,-1.53921 -0.20244,0.75 c -0.11134,0.4125 -0.56833,1.29 -1.01553,1.95 l -0.81308,1.2 -1.63832,0.98598 -1.63832,0.98599 -1.5,0.42553 -1.5,0.42553 -2.1,0.14246 z m -10.3677,-4.91549 -0.31771,0 0.18541,-0.3 c 0.10198,-0.165 0.24494,-0.3 0.31771,-0.3 0.0728,0 0.13229,0.135 0.13229,0.3 l 0,0.3 -0.3177,0 z m -1.17288,-3.6 -0.59059,0 0.17268,-0.45 0.17268,-0.45 0.41791,0 0.4179,0 0,0.45 0,0.45 -0.59058,0 z m 11.64058,0 c -0.3575,0 -0.59375,-0.0382 -0.525,-0.0849 0.0687,-0.0467 0.36125,-0.26572 0.65,-0.48673 l 0.525,-0.40185 0,0.48674 0,0.48673 -0.65,0 z m -0.15734,-7.2 -0.80734,0 0.58234,-0.44046 c 0.32029,-0.24225 0.68359,-0.44475 0.80734,-0.45 l 0.225,-0.01 0,0.45 0,0.45 -0.80734,0 z m -0.30824,-7.20158 -0.83442,-0.002 0.9,-0.55745 c 0.495,-0.30659 0.95043,-0.5142 1.01206,-0.46136 0.0616,0.0529 0.0321,0.30441 -0.0656,0.55903 l -0.17765,0.46294 -0.83441,-0.002 z m 0.36558,-2.69842 -0.45,0 0.048,-2.625 0.048,-2.625 0.121,0.975 0.121,0.975 0.28099,0 0.28099,0 0,1.65 0,1.65 -0.45,0 z m -11.25,12.3 1.09243,0 -0.22431,-1.575 c -0.12338,-0.86625 -0.23417,-1.98441 -0.24622,-2.48481 l -0.0219,-0.9098 2.025,0.10782 2.025,0.10782 0.58868,-0.44055 0.58867,-0.44055 -0.43867,-0.53125 -0.43868,-0.53125 0.33246,-0.11204 c 0.18285,-0.0616 0.58785,-0.30975 0.9,-0.55141 l 0.56754,-0.43938 -0.66049,-0.56114 -0.66049,-0.56114 0.73549,-0.69095 c 0.40452,-0.38003 0.73549,-0.79985 0.73549,-0.93295 l 0,-0.24199 -0.75,-0.18824 c -0.4125,-0.10353 -0.75,-0.25356 -0.75,-0.33339 0,-0.0798 0.26816,-0.48607 0.59591,-0.90274 l 0.59592,-0.75758 -0.16362,-0.26474 -0.16362,-0.26474 -0.89285,0 -0.89285,0 0.31056,-0.58028 c 0.1708,-0.31915 0.31055,-0.79165 0.31055,-1.05 l 0,-0.46972 -0.9,0 -0.9,0 0,-0.8823 0,-0.88229 -0.31319,-0.19356 -0.31319,-0.19357 -0.72357,0.4741 -0.72357,0.4741 -0.48641,-1.02503 -0.48641,-1.02504 -0.42683,-0.16379 c -0.23476,-0.0901 -0.42683,-0.30303 -0.42683,-0.4732 l 0,-0.30942 0.35567,0 c 0.19561,0 0.66811,-0.29353 1.05,-0.65229 l 0.69433,-0.6523 0,-0.82317 c 0,-0.45274 0.0819,-1.03671 0.1821,-1.2977 l 0.18209,-0.47454 0.64291,-3.7e-4 0.6429,-3.6e-4 -0.87166,-0.74964 -0.87166,-0.74963 -0.46309,0 -0.46308,0 -1.03991,0.975 c -0.57195,0.53625 -2.07345,2.02125 -3.33667,3.3 -1.26322,1.27875 -2.1818,2.325 -2.0413,2.325 0.1405,0 1.05731,-0.3375 2.03737,-0.75 0.98006,-0.4125 1.88724,-0.74793 2.01596,-0.74541 0.12872,0.003 0.0315,0.13546 -0.21596,0.29541 l -0.45,0.29081 0.4785,0.005 0.47851,0.005 0.50779,0.5611 0.50779,0.5611 -0.35945,0.7889 c -0.1977,0.43389 -0.43903,0.7846 -0.53629,0.77936 -0.0973,-0.005 -0.4389,-0.20775 -0.75919,-0.45 -0.32028,-0.24225 -0.69153,-0.44046 -0.825,-0.44046 l -0.24266,0 0,1.05 0,1.05 -1.0821,0 -1.08209,0 0.14093,0.375 c 0.0775,0.20625 0.23605,0.67875 0.35231,1.05 l 0.21138,0.675 -0.75251,0 -0.75251,0 -0.20304,0.32852 -0.20303,0.32852 0.64431,0.87148 0.64431,0.87148 -0.61839,0 -0.6184,0 -0.19109,0.49797 -0.19109,0.49797 0.83954,0.66942 0.83954,0.66943 -0.63904,0.20282 -0.63903,0.20282 0,0.43622 0,0.43621 0.75,0.34173 c 0.4125,0.18794 0.75,0.42805 0.75,0.53356 0,0.10552 -0.16875,0.36294 -0.375,0.57205 l -0.375,0.38019 0.6,0.45315 0.6,0.45315 1.90955,-0.11476 1.90954,-0.11477 -0.13076,2.49142 -0.13077,2.49142 1.09244,0 z m 2.11771,-6 -1.4823,0 -0.18541,-0.3 -0.18541,-0.3 0.45,0 0.45,0 0.20157,-0.32614 0.20156,-0.32614 -0.33176,-0.33176 -0.33176,-0.33176 0.65019,-0.6921 0.6502,-0.6921 -0.82407,0 -0.82407,0 0.62178,-0.79046 c 0.34197,-0.43475 0.62177,-0.91635 0.62177,-1.07021 l 0,-0.27976 -0.59126,0.18765 -0.59126,0.18766 0.42591,-0.82093 0.4259,-0.82093 -0.14425,-0.23341 -0.14425,-0.23341 -0.4404,0.169 -0.44039,0.16899 0,-0.93209 0,-0.9321 -0.3,0 -0.3,0 0,-0.6 0,-0.6 0.425,0 0.425,0 0.12621,0.375 0.12622,0.375 0.49878,-0.41173 0.49879,-0.41174 0,0.96926 0,0.96925 0.78905,-0.19803 0.78904,-0.19804 -0.15501,0.54051 c -0.0853,0.29729 -0.25227,0.77677 -0.37114,1.06552 l -0.21613,0.525 0.78209,0 0.7821,0 0,0.26327 c 0,0.14479 -0.2025,0.43132 -0.45,0.63673 -0.2475,0.20541 -0.45,0.47619 -0.45,0.60174 0,0.12556 0.27,0.29889 0.6,0.38518 l 0.6,0.15691 0,0.31753 0,0.31753 -0.64898,0.34732 -0.64897,0.34732 0.71521,0.53949 0.71521,0.53948 -0.81623,0.37191 c -0.44893,0.20454 -0.81624,0.48523 -0.81624,0.62374 0,0.13852 0.135,0.25185 0.3,0.25185 0.165,0 0.3,0.135 0.3,0.3 l 0,0.3 -1.48229,0 z m -3.33541,-14.1 c -0.15527,0 -0.2823,-0.0531 -0.2823,-0.1179 0,-0.0648 0.20951,-0.1983 0.46558,-0.29657 l 0.46558,-0.17866 -0.18328,0.29657 c -0.10081,0.16311 -0.31032,0.29656 -0.46558,0.29656 z m 1.0677,-0.9 c -0.0825,0 -0.15,-0.0675 -0.15,-0.15 0,-0.0825 0.0675,-0.15 0.15,-0.15 0.0825,0 0.15,0.0675 0.15,0.15 0,0.0825 -0.0675,0.15 -0.15,0.15 z m 1.8,-3 c -0.0825,0 -0.15,-0.0675 -0.15,-0.15 0,-0.0825 0.0675,-0.15 0.15,-0.15 0.0825,0 0.15,0.0675 0.15,0.15 0,0.0825 -0.0675,0.15 -0.15,0.15 z m 18.06559,20.66451 3.83441,-0.0355 0.9,-0.22901 0.9,-0.22901 -1.275,-0.0355 -1.275,-0.0355 -0.009,-0.525 -0.009,-0.525 -0.30578,0.525 -0.30579,0.525 -0.43509,0 -0.43509,0 0,-0.6 0,-0.6 -0.62809,0 -0.62808,0 -0.1657,0.63363 -0.1657,0.63363 -1.18099,-0.15841 c -0.64955,-0.0871 -1.25658,-0.23399 -1.34897,-0.32638 l -0.16797,-0.16797 0.39153,-0.47177 0.39153,-0.47177 4.45121,0.0895 4.4512,0.0895 -0.14718,-0.9 c -0.081,-0.495 -0.29163,-2.02647 -0.46816,-3.40327 -0.17654,-1.3768 -0.45679,-2.8618 -0.62279,-3.3 -0.166,-0.4382 -0.56484,-1.07758 -0.88632,-1.42085 l -0.58451,-0.62412 0.52914,-1.42768 0.52913,-1.42767 -0.70788,-0.57321 -0.70788,-0.5732 -2.34723,0 -2.34724,0 -0.76953,0.29257 -0.76953,0.29258 0,0.61706 c 0,0.33938 0.20397,1.10523 0.45327,1.70189 l 0.45327,1.08483 -0.59895,0.41952 -0.59896,0.41953 -0.43657,1.56101 -0.43657,1.56101 -0.3551,3.36129 -0.3551,3.3613 0.17794,0.4637 0.17794,0.46371 3.83442,-0.0355 z m -0.62599,-2.96451 -1.0104,0 0.14874,-3.525 0.14874,-3.525 0.27221,-0.525 0.27222,-0.525 1.32581,0 1.32581,0 -0.73636,0.73636 -0.73637,0.73637 0,3.31363 0,3.31364 -1.0104,0 z m 1.9777,-8.70305 -1.4173,-0.003 -0.49442,-1.17753 -0.49443,-1.17752 0.16943,-0.16942 c 0.0932,-0.0932 1.15942,-0.16943 2.36942,-0.16943 l 2.2,0 0,0.4649 c 0,0.25569 -0.20597,0.86319 -0.4577,1.35 l -0.45771,0.8851 -1.41729,-0.003 z m -10.1173,-5.92792 c 0.66,-0.11312 1.96458,-0.1905 2.89906,-0.17196 l 1.69907,0.0337 0.15265,-0.58373 0.15265,-0.58373 -0.44606,-0.17117 -0.44606,-0.17117 -2.00565,0.21292 c -1.10311,0.11711 -2.27566,0.2046 -2.60566,0.19442 -0.33,-0.0102 -1.65765,-0.10354 -2.95033,-0.20747 l -2.35033,-0.18897 0.10033,0.70907 0.10033,0.70907 1.35,-0.081 1.35,-0.081 0.9,0.29338 0.9,0.29338 1.2,-0.20565 z m -0.58944,-1.26903 c 0.0883,0 0.48703,-0.21392 0.88606,-0.47537 l 0.72551,-0.47537 1.96393,0.21032 1.96394,0.21032 -0.002,-0.40995 c -0.001,-0.22547 -0.13749,-1.28745 -0.30276,-2.35995 -0.16526,-1.0725 -0.36932,-2.25375 -0.45345,-2.625 l -0.15296,-0.675 -1.73695,0 -1.73694,0 -0.57442,0.42003 -0.57442,0.42002 -0.59967,-0.42002 -0.59967,-0.42003 -1.69658,0 -1.69657,0 -0.36319,2.475 c -0.19975,1.36125 -0.385,2.6775 -0.41167,2.925 l -0.0485,0.45 2.46136,0 2.46136,0 0.11123,-1.2 0.11123,-1.2 0.0524,1.575 c 0.0288,0.86625 0.12466,1.575 0.21297,1.575 z m 69.58944,42.67465 -1.2,0.11009 -1.91982,-0.2291 -1.91983,-0.22909 -1.66739,-0.81578 -1.6674,-0.81579 -1.27071,-1.30746 -1.27071,-1.30746 -0.7526,-1.59087 -0.7526,-1.59087 -0.30906,-1.91907 -0.30906,-1.91907 0.30239,-1.95509 0.30238,-1.95509 0.87504,-1.8 0.87504,-1.8 1.29217,-1.3052 c 0.71069,-0.71787 1.83216,-1.62209 2.49216,-2.0094 l 1.2,-0.7042 1.78803,-0.4656 1.78803,-0.4656 2.04962,0 2.04962,0 2.31235,0.51104 c 1.2718,0.28107 2.7511,0.50719 3.28735,0.50249 l 0.97501,-0.009 0,2.94751 0,2.94751 -0.25252,0 -0.25251,0 -0.36512,-1.21865 -0.36511,-1.21865 -1.10738,-1.22824 -1.10737,-1.22824 -1.2,-0.54652 -1.2,-0.54652 -2.16374,-0.007 -2.16375,-0.007 -1.62545,0.60816 -1.62546,0.60816 -1.48901,1.57442 -1.48902,1.57442 -0.69222,1.79242 -0.69222,1.79242 -0.13845,2.73166 -0.13845,2.73165 0.47182,1.61835 0.47182,1.61834 0.8964,1.41072 0.8964,1.41071 1.44067,1.04889 1.44066,1.04888 1.91213,0.51998 1.91212,0.51997 1.83788,-0.31687 c 1.01083,-0.17428 2.34412,-0.52945 2.96287,-0.78927 l 1.125,-0.4724 0,-3.02894 0,-3.02894 -0.73636,-0.73637 -0.73636,-0.73636 -1.36364,0 -1.36364,0 0,-0.3 0,-0.3 4.8,0 4.80001,0 0,0.3 0,0.3 -0.525,0.01 c -0.28875,0.005 -0.795,0.21309 -1.125,0.46187 l -0.6,0.45233 -0.15,3.36296 -0.15,3.36296 -1.80001,0.64952 -1.8,0.64952 -1.95,0.30793 c -1.0725,0.16937 -2.49,0.35748 -3.15,0.41802 z m -36.44215,-0.0747 -0.77434,0 -0.69922,-0.48975 -0.69922,-0.48975 -0.56094,-1.23525 -0.56095,-1.23525 -0.004,-2.25 -0.004,-2.25 0.72817,-1.56399 0.72817,-1.564 1.37809,-1.37809 1.37809,-1.37809 1.86581,-0.88268 c 1.02619,-0.48547 2.04126,-0.88278 2.2557,-0.88291 0.21445,-1.3e-4 0.77437,0.19858 1.24428,0.44158 l 0.85438,0.44181 0.66728,1.37842 0.66728,1.37842 -0.12903,2.45848 -0.12904,2.45848 -0.87241,1.60291 -0.87241,1.6029 -1.3122,1.15504 -1.31219,1.15505 -1.53182,0.76333 -1.53182,0.76334 -0.77435,0 z m 1.88704,-1.31567 0.95511,-0.18271 0.93579,-1.00362 0.93579,-1.00361 0.63732,-1.70339 0.63732,-1.70339 0.18403,-1.56881 0.18402,-1.5688 -0.3318,-1.23084 -0.33181,-1.23084 -0.73601,-0.79416 -0.736,-0.79416 -0.9539,0 -0.9539,0 -0.98794,1.04752 -0.98794,1.04753 -0.6305,1.68515 -0.6305,1.68515 -0.17536,1.69233 -0.17536,1.69232 0.35423,1.30948 0.35422,1.30949 0.74904,0.74904 0.74904,0.74903 0.95511,-0.18271 z m 59.34996,1.29665 c -0.60217,-0.0105 -1.38415,-0.13576 -1.73775,-0.27845 l -0.6429,-0.25945 -0.4821,-0.68829 -0.4821,-0.68829 0,-1.00298 0,-1.00296 0.32386,-0.60514 0.32386,-0.60513 1.55114,-0.72221 c 0.85313,-0.39722 1.72861,-0.72354 1.94553,-0.72515 0.21691,-10e-4 1.06066,-0.28955 1.875,-0.63987 l 1.48061,-0.63695 0,-2.45693 0,-2.45693 -0.84142,-0.80612 -0.84141,-0.80613 -0.97222,0 -0.97222,0 -0.76334,0.76334 -0.76335,0.76334 0.16715,0.43558 0.16715,0.43558 -1.19017,0.60718 -1.19017,0.60717 0,-0.66124 0,-0.66125 1.48198,-1.42843 1.48196,-1.42844 1.14303,-0.30473 1.14303,-0.30473 1.1335,0.25864 c 0.62343,0.14225 1.36594,0.43491 1.65001,0.65035 0.28407,0.21544 0.74974,0.66754 1.03482,1.00467 l 0.51833,0.61297 0.007,5.10825 0.007,5.10825 0.46534,0.66436 0.46535,0.66437 1.03465,-0.43231 1.03466,-0.43231 0,0.2913 0,0.2913 -1.40873,0.8934 -1.40874,0.89339 -0.66983,0 -0.66984,0 -0.47143,-0.47143 -0.47143,-0.47143 0,-0.57857 c 2e-5,-0.31821 -0.0539,-0.57857 -0.11983,-0.57857 -0.0659,0 -0.82199,0.4725 -1.68015,1.05 l -1.56029,1.05 -1.09486,-0.019 z m 0.97879,-1.20467 0.57364,0.0237 1.30136,-0.76264 1.30136,-0.76265 0,-2.23735 c 0,-1.23053 -0.0624,-2.23734 -0.13855,-2.23734 -0.0762,0 -1.14125,0.47594 -2.36677,1.05765 l -2.22822,1.05764 -0.35687,0.86155 -0.35686,0.86155 0.46732,0.9037 c 0.25703,0.49703 0.63892,0.97274 0.84864,1.05712 0.20972,0.0844 0.63945,0.16408 0.95495,0.1771 z m 13.21985,1.0738 -2.81177,1.2e-4 -0.20226,-1.88871 -0.20227,-1.88871 0.15207,-0.15206 0.15206,-0.15207 0.62797,1.29721 0.62797,1.29722 0.87766,0.51844 0.87766,0.51845 0.7557,0 0.75569,0 0.92302,-0.77667 0.92301,-0.77667 0,-0.95961 0,-0.9596 -1.425,-1.37162 c -0.78375,-0.75438 -2.06024,-1.79791 -2.83665,-2.31895 -0.7764,-0.52103 -1.62016,-1.24502 -1.875,-1.60886 l -0.46335,-0.66152 0,-1.31196 0,-1.31197 0.49067,-0.83062 0.49066,-0.83063 0.88422,-0.52232 0.88423,-0.52232 1.70011,-0.0143 c 0.93506,-0.008 2.00386,0.083 2.37511,0.20187 l 0.675,0.21616 0,1.62978 0,1.62978 -0.3,0 -0.3,0 0,-0.48 0,-0.48 -1.02,-1.02 -1.02,-1.02 -0.73954,0 -0.73954,0 -0.79046,0.62178 -0.79046,0.62177 0,0.8615 0,0.86149 0.675,0.76544 c 0.37125,0.42099 1.60941,1.40727 2.75145,2.19173 l 2.07646,1.42629 0.57052,0.77598 0.57052,0.77597 0.14373,1.17403 0.14374,1.17402 -0.54071,1.02868 -0.54071,1.02867 -0.84737,0.62133 -0.84738,0.62132 -2.81176,1.2e-4 z m 32.128073,0.13672 -1.521558,-0.0132 -1.085316,-0.38783 c -0.596922,-0.21331 -1.556904,-0.6793 -2.133291,-1.03553 l -1.047978,-0.64768 -0.759471,-1.12631 c -0.417705,-0.61947 -0.925941,-1.65224 -1.129407,-2.29505 l -0.369939,-1.16874 0.154422,-1.70298 0.154419,-1.70297 0.605805,-1.17829 c 0.333195,-0.64805 0.989421,-1.54229 1.458282,-1.9872 l 0.852474,-0.80891 1.486911,-0.65751 1.486911,-0.65751 1.978221,0.0124 1.978221,0.0124 1.056687,0.44151 1.056684,0.44151 1.120858,0.98413 1.120857,0.98412 0.615606,1.20669 0.615606,1.20669 0.15462,1.70519 0.154623,1.7052 -0.527931,1.58944 -0.527928,1.58945 -1.255221,1.25522 -1.255222,1.25522 -1.458195,0.49685 -1.458192,0.49686 -1.521558,-0.0132 z m 1.455858,-0.93369 0.877419,-0.24132 0.885411,-0.83091 0.885414,-0.83091 0.555582,-1.2 0.555583,-1.2 0.0066,-1.54055 0.0066,-1.54055 -0.500437,-1.54951 -0.500439,-1.54951 -1.169793,-1.32896 -1.169796,-1.32896 -1.179768,-0.35347 -1.179768,-0.35346 -1.184178,0.35478 -1.184178,0.35479 -0.923226,1.1177 -0.923226,1.1177 -0.325956,1.2 -0.325956,1.2 0.15645,1.74195 0.156447,1.74196 0.800196,1.63553 0.800196,1.63554 1.030806,0.78624 1.030806,0.78623 0.970908,0.20851 0.970911,0.2085 0.877416,-0.24132 z m 14.317699,0.93729 -0.495114,-0.01 -2.845191,-6.51543 -2.845191,-6.51543 -0.666171,-0.675 -0.666174,-0.675 -0.613638,0 -0.613635,0 0,-0.3 0,-0.3 3.6,0 3.6,0 0,0.28007 0,0.28008 -0.794742,0.0949 -0.794742,0.0949 -0.298839,0.47762 -0.298839,0.47762 2.211276,4.99738 c 1.2162,2.74856 2.297724,4.99738 2.403384,4.99738 0.10566,0 0.952698,-1.82032 1.882305,-4.04516 0.92961,-2.22483 1.690197,-4.26333 1.690197,-4.53 l 0,-0.48484 -1.02,-1.02 -1.02,-1.02 -0.78,0 -0.78,0 0,-0.3 0,-0.3 3.75,0 3.75,0 0,0.3 0,0.3 -0.54,0 -0.54,0 -0.36,0.36 c -0.198,0.198 -0.36,0.53446 -0.36,0.74768 0,0.21322 0.898854,2.56128 1.997458,5.21791 l 1.997454,4.83023 0.277473,-0.49582 c 0.15261,-0.2727 1.076256,-2.4536 2.052543,-4.84645 0.97629,-2.39285 1.775073,-4.46765 1.775073,-4.61066 0,-0.14302 -0.212142,-0.47218 -0.471429,-0.73146 l -0.471429,-0.47143 -0.878571,0 -0.878571,0 0,-0.3 0,-0.3 3.15,0 3.15,0 0,0.3 0,0.3 -0.426981,0 -0.426984,0 -0.87798,0.73877 -0.877983,0.73877 -2.637654,6.47502 -2.637657,6.47502 -0.476235,-0.0917 -0.476238,-0.0917 -1.718008,-4.04708 c -0.944904,-2.22589 -1.93488,-4.5772 -2.199948,-5.22514 l -0.481944,-1.17807 -2.261079,5.30307 -2.261082,5.30307 -0.495114,-0.01 z m -71.29511,-0.29043 -4.05,0 0,-0.28844 0,-0.28843 1.19489,-0.32176 1.1949,-0.32175 0.3051,-0.57009 0.30511,-0.57009 0,-10.064 0,-10.06401 -0.675,-0.14403 c -0.37125,-0.0792 -0.93382,-0.18305 -1.25014,-0.23072 l -0.57515,-0.0867 -0.10466,-0.3144 -0.10466,-0.31441 2.05109,-0.66059 c 1.1281,-0.36333 2.27776,-0.6606 2.5548,-0.6606 l 0.50372,0 0,11.33325 0,11.33325 0.45037,0.64299 0.45037,0.643 0.89963,0.19759 0.89963,0.19759 0,0.27617 0,0.27616 -4.05,0 z m 76.889633,-19.2 -0.719637,0 -0.36,-0.36 -0.36,-0.36 0,-0.66519 0,-0.66518 1.372323,-0.5241 1.37232,-0.52409 0.680922,-0.92572 c 0.374505,-0.50915 0.975958,-1.67319 1.336561,-2.58676 l 0.655641,-1.66104 -2.724769,-5.82637 c -1.49862,-3.20451 -3.012654,-6.33861 -3.364518,-6.96466 l -0.63975,-1.13829 -0.994365,-0.35957 c -0.5469,-0.19776 -0.994365,-0.46744 -0.994365,-0.5993 l 0,-0.23973 3.75,0 3.75,0 0,0.3 0,0.3 -0.533247,0 c -0.293289,0 -0.832215,0.2094 -1.197618,0.46534 l -0.664368,0.46534 0.461247,1.10966 c 0.253683,0.61031 1.285533,2.89841 2.292994,5.08466 1.007463,2.18625 1.912581,3.97437 2.011371,3.9736 0.09879,-7.8e-4 0.96747,-1.9985 1.930395,-4.43941 l 1.750773,-4.43801 -0.100773,-0.87604 -0.100773,-0.87604 -0.975,-0.27795 -0.975,-0.27795 0,-0.2566 0,-0.2566 3,0 3,0 0,0.3 c 0,0.165 -0.130302,0.3 -0.28956,0.3 -0.159261,0 -0.756894,0.41032 -1.328073,0.91183 l -1.038513,0.91182 -3.836997,9.62611 -3.836998,9.6261 -0.805293,0.86207 -0.805293,0.86207 -0.719637,0 z m -119.879403,-8.13287 c -0.94063,-0.0181 -2.31162,-0.15076 -3.04665,-0.29484 l -1.33641,-0.26197 -1.57481,-0.77049 -1.57482,-0.77048 -0.77811,-0.92474 c -0.42797,-0.5086 -1.07389,-1.48045 -1.43539,-2.15967 l -0.65727,-1.23494 -0.15339,-7.67996 -0.15339,-7.67996 -0.41396,-0.49773 -0.41396,-0.49772 -1.16104,-0.18566 -1.16104,-0.18565 0,-0.26166 0,-0.26166 4.8,0 4.8,0 0,0.3 0,0.3 -0.91363,0 -0.91364,0 -0.73636,0.73636 -0.73637,0.73637 0,6.72592 0,6.72591 0.45589,1.29212 0.45588,1.29212 0.78703,1.03184 0.78702,1.03184 1.68209,0.78009 1.68209,0.78008 2.55,0.009 2.55,0.009 1.40133,-0.54077 1.40134,-0.54078 1.18398,-1.28447 1.18398,-1.28446 0.41469,-1.17476 0.41468,-1.17476 0,-6.6 0,-6.6 -0.38803,-0.67964 -0.38804,-0.67964 -1.33696,-0.35758 -1.33697,-0.35758 0,-0.23778 0,-0.23778 4.2,0 4.2,0 0,0.2625 0,0.2625 -0.84356,0.16871 -0.84356,0.16872 -0.73144,0.59168 -0.73144,0.59169 -0.15141,7.3021 -0.15142,7.3021 -0.68895,1.5 -0.68895,1.5 -0.95963,1.00179 -0.95964,1.00179 -1.35,0.68589 -1.35,0.6859 -1.58976,0.33732 -1.58977,0.33731 -1.71023,-0.0329 z m 49.07532,-0.27503 -0.51445,0.008 -0.28984,-0.54157 c -0.15941,-0.29787 -1.45115,-3.23412 -2.87054,-6.525 l -2.5807,-5.98343 -0.75674,-0.675 -0.75674,-0.675 -0.43327,0 -0.43327,0 0,-0.3 0,-0.3 3.75,0 3.74999,0 0,0.26166 0,0.26166 -1.16725,0.18665 -1.16725,0.18665 -0.14806,0.38583 -0.14806,0.38583 2.10947,5.01586 c 1.1602,2.75872 2.20334,5.01586 2.31807,5.01586 0.11474,0 1.10737,-2.07813 2.20584,-4.61807 1.09848,-2.53994 1.99724,-4.74651 1.99724,-4.9035 0,-0.15699 -0.23625,-0.49834 -0.525,-0.75856 -0.28875,-0.26022 -0.89625,-0.56578 -1.35,-0.67902 l -0.825,-0.20589 0,-0.26748 0,-0.26748 3.15,0 3.15,0 0,0.30743 0,0.30742 -0.7106,0.27017 -0.71061,0.27017 -0.59395,0.75509 -0.59396,0.7551 -2.67044,6.15941 -2.67044,6.15941 -0.51444,0.008 z m 14.76444,-0.0107 -1.65,-0.005 -0.9,-0.47447 c -0.495,-0.26096 -1.21688,-0.7618 -1.60419,-1.11299 -0.38731,-0.35119 -0.9824,-1.17852 -1.32243,-1.83852 l -0.61823,-1.2 -0.13954,-2.13629 -0.13954,-2.13629 0.52699,-1.58663 0.527,-1.58663 1.26346,-1.26347 1.26346,-1.26346 1.12619,-0.37167 1.12618,-0.37168 1.9171,0.12207 1.91709,0.12207 0.82823,0.61577 0.82823,0.61578 0.975,1.7272 c 0.53625,0.94997 0.975,1.84477 0.975,1.98845 l 0,0.26124 -5.475,0.0818 -5.475,0.0818 -0.0968,1.18648 -0.0968,1.18648 0.37478,1.33857 0.37478,1.33856 1.222,1.27062 1.22199,1.27063 1.275,0.34089 1.27501,0.3409 1.275,-0.33477 1.275,-0.33476 1.14488,-0.90691 1.14488,-0.90692 0.17955,0.17954 0.17954,0.17955 -1.30242,1.23896 -1.30242,1.23896 -1.22201,0.55502 -1.222,0.55502 -1.65001,-0.005 z m 0.0177,-10.4814 3.5823,0 0,-0.6149 c 0,-0.33819 -0.1998,-1.00127 -0.44401,-1.47351 -0.2442,-0.47224 -0.80241,-1.14053 -1.24046,-1.4851 l -0.79645,-0.62649 -1.11908,0 -1.11909,0 -0.79882,0.62836 -0.79883,0.62836 -0.60298,1.18193 -0.60297,1.18193 0.17905,0.28971 0.17905,0.28971 3.58229,0 z m 24.884564,10.43206 -2.702265,-0.081 -0.0041,-1.20054 c -0.0024,-0.66029 -0.0855,-1.50428 -0.184992,-1.87553 l -0.180891,-0.675 0.329274,0 0.329274,0 0.187425,0.74676 0.187425,0.74677 1.02873,0.90323 1.028727,0.90324 1.137267,0 1.137267,0 0.617814,-0.675 c 0.339798,-0.37125 0.710577,-0.9808 0.823953,-1.35455 l 0.206139,-0.67954 -0.601248,-0.97046 -0.601248,-0.97045 -1.445409,-1.07503 c -0.794976,-0.59127 -1.886199,-1.37816 -2.424939,-1.74865 l -0.979542,-0.67362 -0.445473,-0.86145 -0.445473,-0.86145 0,-0.84458 0,-0.84458 0.548181,-1.02214 0.548178,-1.02214 1.026822,-0.56593 1.026819,-0.56592 2.008896,0.10164 2.008896,0.10164 0.216453,0.21645 c 0.119046,0.11905 0.27801,0.9588 0.35325,1.86611 l 0.136803,1.64965 -0.279414,0 -0.279414,0 -0.542625,-1.22989 -0.542625,-1.22988 -1.028871,-0.42989 -1.028868,-0.42989 -0.800343,0.38477 -0.800343,0.38478 -0.42999,0.76716 -0.42999,0.76716 0.419094,0.87097 0.419091,0.87097 2.393754,1.67033 2.393757,1.67034 0.681243,1.0109 0.681246,1.0109 -0.0012,1.23063 -0.0012,1.23064 -0.585612,0.96043 -0.585609,0.96044 -0.911001,0.4711 -0.911001,0.47109 -2.702268,-0.081 z m 22.143199,0.0679 -1.31196,0 -0.698442,-0.48921 -0.698442,-0.48921 -0.418308,-1.00115 -0.418311,-1.00116 0,-5.25963 0,-5.25964 -0.9,0 c -0.495,0 -0.9,-0.0762 -0.9,-0.16937 0,-0.0932 0.415701,-0.51915 0.923778,-0.94667 l 0.923775,-0.77731 0.904863,-1.60333 0.90486,-1.60332 0.271362,0 0.271362,0 0,1.8 0,1.8 2.25,0 2.25,0 0,0.16972 c 0,0.0933 -0.139749,0.43085 -0.310554,0.75 l -0.310557,0.58028 -1.939443,0 -1.939446,0 0,5.12308 0,5.12307 0.876924,0.87693 0.876921,0.87692 0.652716,0 0.652713,0 0.879189,-0.94117 0.879189,-0.94118 0.203016,0.20302 0.203019,0.20302 -0.53004,0.98422 -0.53004,0.98422 -0.853092,0.50394 -0.853089,0.50393 -1.311963,0 z m -93.545473,-0.3 -3.6,0 0,-0.3 0,-0.3 0.40955,0 c 0.22524,0 0.76831,-0.28221 1.20681,-0.62713 l 0.79727,-0.62713 -0.0818,-5.29787 -0.0818,-5.29787 -1.125,-0.27791 -1.125,-0.27791 0,-0.22086 c 0,-0.12148 0.91412,-0.57017 2.03137,-0.99709 1.11725,-0.42693 2.19725,-0.77623 2.4,-0.77623 l 0.36863,0 0,1.375 0,1.375 0.225,-0.1 c 0.12375,-0.055 1.15395,-0.62777 2.28934,-1.27282 l 2.06434,-1.17282 1.41098,-0.13557 1.41098,-0.13558 0.97332,0.50332 0.97331,0.50332 0.50137,1.10508 0.50136,1.10507 -0.0748,5.31453 -0.0748,5.31452 0.58013,0.31048 c 0.31906,0.17076 0.92649,0.31047 1.34984,0.31047 l 0.76972,0 0,0.3 0,0.3 -3.9,0 -3.9,0 0,-0.2566 0,-0.2566 0.975,-0.27916 0.975,-0.27916 0.43975,-0.88924 0.43974,-0.88924 0.0103,-4.40138 0.0103,-4.40138 -0.63053,-0.84615 -0.63053,-0.84615 -0.96406,-0.27649 -0.96407,-0.27649 -2.3054,1.19484 -2.30541,1.19483 -0.0826,4.51466 -0.0826,4.51467 0.30265,0.79603 0.30265,0.79603 0.90495,0.18099 0.90495,0.18099 0,0.2625 0,0.2625 -3.6,0 z m 19.35001,0 -4.05001,0 0,-0.26661 0,-0.26662 1.00882,-0.18925 1.00881,-0.18925 0.56619,-0.62533 0.56619,-0.62532 0,-4.94268 0,-4.94267 -0.58234,-0.42614 -0.58234,-0.42613 -0.84266,0 -0.84267,0 0,-0.39095 0,-0.39095 2.175,-0.73058 c 1.19626,-0.40181 2.34376,-0.77578 2.55001,-0.83104 l 0.375,-0.10047 0.004,6.39699 0.004,6.397 0.37438,0.73986 0.37439,0.73987 0.97119,0.27853 0.97122,0.27854 0,0.2566 0,0.2566 -4.05,0 z m 40.2,0 -4.35,0 0,-0.3 0,-0.3 0.46363,0 0.46364,0 0.73636,-0.73636 0.73637,-0.73637 0,-5.06615 0,-5.06615 -1.2,-0.35953 -1.2,-0.35953 0,-0.3789 0,-0.37891 2.04628,-0.65905 c 1.12546,-0.36248 2.19902,-0.65905 2.38569,-0.65905 l 0.3394,0 0.0893,1.84703 0.0893,1.84704 1.205192,-1.62204 1.205196,-1.62203 0.894804,-0.0832 0.894807,-0.0832 1.254027,0.38325 1.254028,0.38324 -0.414547,0.975 -0.414543,0.975 -0.577845,0 c -0.317814,0 -1.059285,-0.20116 -1.647714,-0.44702 l -1.069869,-0.44702 -0.477192,0.18312 -0.477189,0.18311 -0.889575,1.29296 -0.88958,1.29296 0,4.07094 0,4.07095 0.6,0.6 0.599999,0.6 1.35,0 1.35,0 0,0.3 0,0.3 -4.349999,0 z m 23.699999,0 -4.05,0 0,-0.3 0,-0.3 0.435885,0 c 0.239736,0 0.76485,-0.14989 1.166919,-0.33308 l 0.731034,-0.33308 0.333081,-0.73104 0.333081,-0.73103 0,-4.59915 0,-4.59915 -0.451848,-0.375 c -0.248517,-0.20626 -0.879675,-0.46251 -1.402572,-0.56945 l -0.950721,-0.19444 -0.101388,-0.30417 -0.101388,-0.30416 2.496822,-0.81313 c 1.373253,-0.44721 2.590035,-0.81312 2.70396,-0.81312 l 0.207135,0 0,6.72823 0,6.72822 0.790458,0.62178 0.790459,0.62177 0.559542,0 0.559542,0 0,0.3 0,0.3 -4.050001,0 z m -63.685559,-21.00459 c -0.44794,-0.003 -0.994,-0.11843 -1.21347,-0.25756 l -0.39902,-0.25295 0.099,-0.83719 0.099,-0.83719 0.47856,-0.29944 0.47857,-0.29943 0.77644,0.19487 0.77644,0.19487 0.18661,0.58798 0.18662,0.58797 -0.32718,0.61133 -0.32718,0.61133 -0.81444,-0.005 z m 63.535559,0.005 -0.78,0 -0.36,-0.36 -0.36,-0.36 0,-0.69643 0,-0.69643 0.75,-0.34173 0.75,-0.34172 0.75,0.34172 0.75,0.34173 0,0.69643 0,0.69643 -0.36,0.36 -0.36,0.36 -0.78,0 z"
       id="path5785"
       inkscape:connector-curvature="0" />
  </g>
</svg>
