<?xml version="1.0" encoding="UTF-8" standalone="no"?>
<!-- Created with Inkscape (http://www.inkscape.org/) -->

<svg
   xmlns:dc="http://purl.org/dc/elements/1.1/"
   xmlns:cc="http://creativecommons.org/ns#"
   xmlns:rdf="http://www.w3.org/1999/02/22-rdf-syntax-ns#"
   xmlns:svg="http://www.w3.org/2000/svg"
   xmlns="http://www.w3.org/2000/svg"
   xmlns:sodipodi="http://sodipodi.sourceforge.net/DTD/sodipodi-0.dtd"
   xmlns:inkscape="http://www.inkscape.org/namespaces/inkscape"
   width="210mm"
   height="297mm"
   viewBox="0 0 744.09448819 1052.3622047"
   id="svg2"
   version="1.1"
   inkscape:version="0.91 r13725"
   sodipodi:docname="uog_blue.svg">
  <defs
     id="defs4">
    <clipPath
       id="clipPath4152"
       clipPathUnits="userSpaceOnUse">
      <path
         inkscape:connector-curvature="0"
         id="path4154"
         d="M 0,480.898 0,0 l 1553.96,0 0,480.898 -1553.96,0 z" />
    </clipPath>
  </defs>
  <sodipodi:namedview
     id="base"
     pagecolor="#ffffff"
     bordercolor="#666666"
     borderopacity="1.0"
     inkscape:pageopacity="0.0"
     inkscape:pageshadow="2"
     inkscape:zoom="0.35"
     inkscape:cx="-112.14286"
     inkscape:cy="520"
     inkscape:document-units="px"
     inkscape:current-layer="layer1"
     showgrid="false"
     inkscape:window-width="732"
     inkscape:window-height="405"
     inkscape:window-x="5300"
     inkscape:window-y="260"
     inkscape:window-maximized="0" />
  <metadata
     id="metadata7">
    <rdf:RDF>
      <cc:Work
         rdf:about="">
        <dc:format>image/svg+xml</dc:format>
        <dc:type
           rdf:resource="http://purl.org/dc/dcmitype/StillImage" />
        <dc:title></dc:title>
      </cc:Work>
    </rdf:RDF>
  </metadata>
  <g
     inkscape:label="Layer 1"
     inkscape:groupmode="layer"
     id="layer1">
    <g
       transform="matrix(1.25,0,0,-1.25,-209.26536,562.41833)"
       inkscape:label="ink_ext_XXXXXX"
       id="g4144">
      <g
         transform="scale(0.1,0.1)"
         id="g4146">
        <g
           id="g4148">
          <g
             clip-path="url(#clipPath4152)"
             id="g4150">
            <path
               inkscape:connector-curvature="0"
               id="path4156"
               style="fill:#0d4d84;fill-opacity:1;fill-rule:nonzero;stroke:none"
               d="M 0.0429688,222.223 C -0.015625,143.461 97.3008,56.6016 155.527,53.5938 l -0.168,0 c 58.231,3.0078 155.543,89.8672 155.485,168.6292 0.379,106.933 0.008,254.203 0.008,254.203 l -310.8090312,-0.024 0,-254.179" />
            <path
               inkscape:connector-curvature="0"
               id="path4158"
               style="fill:#0d4d84;fill-opacity:1;fill-rule:nonzero;stroke:none"
               d="m 608.594,476.426 0,-5.606 c -19.926,-0.332 -27.051,-8.351 -27.051,-27.347 l 0,-80.231 c 0,-36.847 -23.457,-76.383 -87.957,-76.383 -56.75,0 -85.856,32.379 -85.856,74.879 l 0,86.774 c 0,19.027 -5.347,21.976 -25.562,22.308 l 0,5.606 76.379,0 0,-5.606 -2.688,0 c -16.324,0 -23.464,-4.496 -23.464,-21.718 l 0,-82.61 c 0,-40.097 23.464,-64.168 67.742,-64.168 33.578,0 67.754,13.965 67.754,64.438 l 0,69.261 c 0,28.528 -4.473,33.567 -29.125,34.797 l 0,5.606 69.828,0" />
            <path
               inkscape:connector-curvature="0"
               id="path4160"
               style="fill:#0d4d84;fill-opacity:1;fill-rule:nonzero;stroke:none"
               d="m 642.156,317.465 c 0,-16.332 3.864,-20.231 19.91,-20.231 l 0,-5.629 -59.718,0 0,5.629 c 13.062,0 19.898,7.157 19.898,18.743 l 0,62.386 c 0,11 -1.199,13.082 -8.91,14.563 l -10.117,2.082 0,4.754 34.183,12.488 4.754,0 0,-23.16 c 19.91,12.469 36.543,23.453 51.11,23.453 20.211,0 31.789,-14.844 31.789,-44.547 0,-39.516 -2.075,-47.234 -2.364,-58.851 -0.32,-8.012 4.442,-11.911 16.629,-11.911 l 6.547,0 0,-5.629 -63.871,0 0,5.629 c 8.59,0.329 13.641,2.395 16.906,5.664 5.645,5.661 6.243,27.36 6.243,66.852 0,23.781 -11.575,31.227 -23.489,31.227 -9.5,0 -24.043,-8.332 -39.5,-19.024 l 0,-64.488" />
            <path
               inkscape:connector-curvature="0"
               id="path4162"
               style="fill:#0d4d84;fill-opacity:1;fill-rule:nonzero;stroke:none"
               d="m 786.773,480.898 c 7.133,0 13.051,-5.039 13.051,-11.308 0,-6.223 -5.918,-11.285 -13.051,-11.285 -7.156,0 -12.785,5.062 -12.785,11.285 0,6.269 5.629,11.308 12.785,11.308 z m 12.176,-166.695 c 0,-10.418 5.653,-16.969 21.395,-16.969 l 0,-5.629 -65.965,0 0,5.629 c 18.117,0 24.66,5.954 24.66,21.727 l 0,59.707 c 0,11.605 -1.48,13.07 -9.199,14.574 l -13.973,2.68 0,4.742 38.613,13.383 4.469,0 0,-99.844" />
            <path
               inkscape:connector-curvature="0"
               id="path4164"
               style="fill:#0d4d84;fill-opacity:1;fill-rule:nonzero;stroke:none"
               d="m 880.863,288.945 -43.082,98.629 c -4.461,10.403 -8.328,13.985 -13.086,14.883 l -9.203,1.469 0,5.355 60.621,0 0,-5.355 c -18.14,-0.586 -23.785,-2.949 -16.648,-16.91 l 31.519,-74.008 30.282,68.637 c 5.359,12.207 2.675,20.812 -18.985,22.281 l 0,5.355 51.696,0 0,-5.355 c -11.286,-2.074 -17.86,-8.598 -23.497,-21.684 l -40.984,-93.297 -8.633,0" />
            <path
               inkscape:connector-curvature="0"
               id="path4166"
               style="fill:#0d4d84;fill-opacity:1;fill-rule:nonzero;stroke:none"
               d="m 1033.79,374.813 c -3.26,19.304 -15.13,32.101 -29.42,32.101 -9.804,0 -24.647,-4.457 -31.495,-32.101 l 60.915,0 z m -61.825,-7.719 c -0.559,-4.481 -1.149,-8.614 -1.149,-12.477 0,-30.902 21.668,-51.719 45.134,-51.719 14.88,0 26.46,5.946 37.76,19.332 l 3.26,-3.554 c -12.48,-15.778 -31.19,-30.641 -52.89,-30.641 -29.115,0 -51.682,26.453 -51.682,60.934 0,31.504 21.082,63.574 57.342,63.574 40.07,0 39.22,-28.809 49.01,-38.617 l 0,-6.832 -86.785,0" />
            <path
               inkscape:connector-curvature="0"
               id="path4168"
               style="fill:#0d4d84;fill-opacity:1;fill-rule:nonzero;stroke:none"
               d="m 1112.83,313.309 c 0,-12.176 4.47,-16.075 19.32,-16.075 l 11.29,0 0,-5.629 -70.43,0 0,5.629 c 15.16,0.329 19.91,6.551 19.91,22.321 l 0,68.617 -19.91,7.156 0,5.043 33.86,11.879 5.96,0 0,-31.484 0.59,0 c 14.85,24.371 18.41,29.996 28.23,29.996 3.58,0 4.45,-0.297 10.1,-2.672 2.99,-1.176 8.34,-2.391 15.45,-4.438 l -7.11,-17.851 c -4.47,0.594 -10.13,2.09 -15.77,4.781 -3.25,1.488 -6.82,2.949 -10.41,2.949 -5.31,0 -8.59,-3.601 -11.58,-7.73 -3.85,-5.328 -7.11,-10.422 -9.5,-14.844 l 0,-57.648" />
            <path
               inkscape:connector-curvature="0"
               id="path4170"
               style="fill:#0d4d84;fill-opacity:1;fill-rule:nonzero;stroke:none"
               d="m 1183.93,321.641 c 3.54,-17.856 14.83,-27.946 28.21,-27.946 11.89,0 21.1,8.91 21.1,19.614 0,6.246 -1.49,10.105 -9.52,18.14 -21.1,21.086 -44.56,23.168 -44.56,47.828 0,19.61 15.47,33.266 38.03,33.266 8.02,0 16.34,-1.781 23.77,-4.75 l 0.6,-27.027 -5.06,0 c -2.09,15.156 -11.87,24.648 -23.77,24.648 -9.79,0 -18.1,-6.84 -18.1,-16.629 0,-26.172 55.24,-30.613 55.24,-66.851 0,-19.329 -16.06,-33.899 -36.85,-33.899 -5.64,0 -9.78,0.91 -13.06,2.082 -3.27,0.906 -5.67,1.781 -8.01,1.781 -1.79,0 -3.57,-1.171 -5.06,-3.55 l -4.47,0 -3.26,33.293 4.77,0" />
            <path
               inkscape:connector-curvature="0"
               id="path4172"
               style="fill:#0d4d84;fill-opacity:1;fill-rule:nonzero;stroke:none"
               d="m 1296.61,480.898 c 7.14,0 13.06,-5.039 13.06,-11.308 0,-6.223 -5.92,-11.285 -13.06,-11.285 -7.14,0 -12.77,5.062 -12.77,11.285 0,6.269 5.63,11.308 12.77,11.308 z m 12.18,-166.695 c 0,-10.418 5.65,-16.969 21.4,-16.969 l 0,-5.629 -65.98,0 0,5.629 c 18.15,0 24.68,5.954 24.68,21.727 l 0,59.707 c 0,11.605 -1.49,13.07 -9.21,14.574 l -13.99,2.68 0,4.742 38.64,13.383 4.46,0 0,-99.844" />
            <path
               inkscape:connector-curvature="0"
               id="path4174"
               style="fill:#0d4d84;fill-opacity:1;fill-rule:nonzero;stroke:none"
               d="m 1407.97,409.281 -4.75,-13.074 -31.98,0 0,-69.23 c 0,-18.707 13.38,-24.973 19.61,-24.973 6.55,0 12.47,5.074 18.11,14.898 l 4.78,-4.472 c -7.13,-15.473 -18.74,-24.395 -32.42,-24.395 -17.5,0 -29.99,14.57 -29.99,34.469 l 0,73.703 -13.67,0 0,4.77 c 11.6,5.625 21.7,19.296 28.52,37.734 l 5.06,0 0,-29.43 36.73,0" />
            <path
               inkscape:connector-curvature="0"
               id="path4176"
               style="fill:#0d4d84;fill-opacity:1;fill-rule:nonzero;stroke:none"
               d="m 1518.9,376.305 c 8.92,22.582 3.26,27.035 -14.25,27.621 l 0,5.355 49.31,0 0,-5.355 c -12.18,-1.469 -19,-9.809 -24.65,-23.77 l -50.54,-125.988 c -8.88,-21.98 -15.73,-31.797 -26.12,-31.797 -7.15,0 -12.18,4.473 -12.18,10.41 0,12.184 17.22,9.199 24.65,16.653 3.27,3.277 7.73,10.992 10.1,16.918 l 8.92,22.316 -46.04,97.727 c -5.67,12.179 -10.99,17.257 -23.49,17.531 l 0,5.355 59.74,0 0,-5.355 c -18.13,-0.274 -20.22,-5.629 -14.26,-18.125 l 33.57,-72.492 25.24,62.996" />
            <path
               inkscape:connector-curvature="0"
               id="path4178"
               style="fill:#0d4d84;fill-opacity:1;fill-rule:nonzero;stroke:none"
               d="m 446.656,180.168 c -18.726,0 -35.355,-35.949 -35.355,-65.664 0,-24.9337 10.679,-37.1407 20.789,-37.1407 23.769,0 37.746,38.6287 37.746,65.9607 0,20.824 -10.109,36.844 -23.18,36.844 z m 15.157,11.004 c 8.609,0 27.035,-11.871 27.035,-43.707 0,-56.4416 -56.16,-81.0978 -70.121,-81.0978 -13.961,0 -26.442,22.2734 -26.442,46.9528 0,48.121 51.699,77.852 69.528,77.852" />
            <path
               inkscape:connector-curvature="0"
               id="path4180"
               style="fill:#0d4d84;fill-opacity:1;fill-rule:nonzero;stroke:none"
               d="m 499.449,177.793 0.899,5.645 c 7.136,0.894 14.269,2.089 21.699,3.882 4.453,24.356 13.363,49.895 30,66.535 10.394,10.391 23.484,16.047 35.062,16.047 11.602,0 21.09,-6.535 21.09,-14.254 0,-4.742 -3.57,-8.628 -8.332,-8.628 -9.777,0 -17.82,12.191 -26.429,12.191 -11.598,0 -21.083,-13.074 -25.254,-32.688 l -8.016,-38.925 25.547,0 -2.973,-9.805 -24.375,0 -15.14,-86.7696 C 511.637,24.4727 477.754,0.722656 449.828,0.722656 c -12.461,0 -22.871,6.218754 -22.871,13.652344 0,4.7656 4.762,8.9258 9.82,8.9258 10.977,0 16.914,-13.086 28.207,-13.086 6.848,0 12.77,3.2813 18.141,8.6133 14.844,14.8633 20.488,65.6446 21.676,72.7735 l 15.156,86.1914 -20.508,0" />
            <path
               inkscape:connector-curvature="0"
               id="path4182"
               style="fill:#0d4d84;fill-opacity:1;fill-rule:nonzero;stroke:none"
               d="m 783.164,83.9063 c -29.402,-15.168 -67.133,-18.711 -79.617,-18.711 -65.067,0 -95.379,50.1997 -95.379,93.5937 0,44.559 31.211,100.422 103.707,100.422 31.781,0 52.883,-10.102 59.109,-10.102 2.688,0 5.075,0.579 6.848,2.067 l 4.156,0 0,-48.133 -5.929,0 c -8.051,37.141 -33.293,48.73 -60.922,48.73 -52.293,0 -79.043,-43.39 -79.043,-91.226 0,-60.8947 42.793,-87.9181 76.957,-87.9181 13.679,0 28.812,2.957 45.469,11.2774 l 0,37.4417 c 0,16.914 -5.938,22.578 -23.762,22.578 l -11.012,0 0,5.332 80.219,0 0,-5.332 c -14.844,-0.899 -20.801,-5.953 -20.801,-18.715 l 0,-41.3047" />
            <path
               inkscape:connector-curvature="0"
               id="path4184"
               style="fill:#0d4d84;fill-opacity:1;fill-rule:nonzero;stroke:none"
               d="m 848.656,93.4063 c 0,-12.1758 5.657,-17.8204 17.235,-17.8204 l 5.066,0 0,-5.6562 -66.848,0 0,5.6562 c 19,0 24.645,5.6446 24.645,19.9102 l 0,143.4919 c 0,8.356 -0.895,10.992 -9.203,11.918 l -13.356,1.492 0,5.02 38.016,12.187 4.445,0 0,-176.1987" />
            <path
               inkscape:connector-curvature="0"
               id="path4186"
               style="fill:#0d4d84;fill-opacity:1;fill-rule:nonzero;stroke:none"
               d="m 944.426,125.211 c -5.653,-3.273 -10.403,-5.371 -17.531,-8.34 -18.133,-7.414 -24.957,-10.402 -24.957,-22.6054 0,-10.6718 8.593,-17.4883 17.535,-17.4883 4.746,0 8.32,1.4649 24.953,13.0665 l 0,35.3672 z m -58.824,27.019 c -0.59,1.813 -0.899,2.68 -0.899,4.172 0,10.414 24.656,34.481 43.969,34.481 8.933,0 22.871,-4.172 31.183,-15.781 4.477,-6.247 4.477,-10.094 4.477,-25.532 l 0,-39.816 c 0,-23.7774 0,-29.129 7.742,-29.129 3.242,0 7.114,0.3203 14.535,6.543 l 1.489,-4.4727 C 972.074,69.6367 963.73,66.3672 958.684,66.3672 c -12.184,0 -13.368,13.3867 -13.661,18.1055 -20.496,-16.9063 -26.437,-18.1055 -34.492,-18.1055 -17.211,0 -27.609,9.8125 -27.609,24.3555 0,18.1133 16.043,24.3593 35.058,29.1173 6.239,1.508 16.043,5.058 26.446,11.312 l 0,23.473 c 0,8.32 0,13.09 -5.067,19.012 -3.839,4.769 -10.078,8.609 -16.629,8.609 -9.8,0 -18.429,-8.32 -18.429,-14.531 0,-1.809 0.304,-2.985 1.492,-5.664 l -20.191,-9.821" />
            <path
               inkscape:connector-curvature="0"
               id="path4188"
               style="fill:#0d4d84;fill-opacity:1;fill-rule:nonzero;stroke:none"
               d="m 1002.72,99.9492 c 3.6,-17.8203 14.86,-27.957 28.27,-27.957 11.88,0 21.09,8.9531 21.09,19.6094 0,6.2656 -1.49,10.1214 -9.53,18.1524 -21.07,21.07 -44.554,23.184 -44.554,47.832 0,19.617 15.444,33.297 38.034,33.297 8.01,0 16.34,-1.805 23.76,-4.762 l 0.59,-27.043 -5.04,0 c -2.09,15.16 -11.88,24.668 -23.78,24.668 -9.8,0 -18.12,-6.844 -18.12,-16.641 0,-26.144 55.27,-30.601 55.27,-66.875 0,-19.2847 -16.05,-33.8628 -36.84,-33.8628 -5.63,0 -9.81,0.8789 -13.08,2.0586 -3.25,0.9297 -5.65,1.789 -8.02,1.789 -1.8,0 -3.55,-1.1523 -5.04,-3.5546 l -4.49,0 -3.244,33.289 4.724,0" />
            <path
               inkscape:connector-curvature="0"
               id="path4190"
               style="fill:#0d4d84;fill-opacity:1;fill-rule:nonzero;stroke:none"
               d="m 1135.53,185.215 c -11.3,0 -28.82,-6.235 -28.82,-33.871 0,-17.516 8.92,-41.016 31.51,-41.016 17.22,0 28.52,14.27 28.52,34.785 0,25.535 -13.08,40.102 -31.21,40.102 z m 8.32,-176.17203 c 25.26,0 49.02,16.62893 49.02,35.35153 0,10.9766 -9.19,16.6407 -19.91,17.5078 -7.71,0.9102 -45.14,1.2227 -53.76,2.3946 -8.33,-9.7852 -19.32,-13.9649 -19.32,-25.5274 0,-14.0039 19.6,-29.72653 43.97,-29.72653 z m 67.46,154.17603 c -4.46,0.285 -18.44,1.511 -29.71,3.597 1.77,-3.312 5.04,-9.507 5.04,-19.023 0,-21.996 -18.99,-43.109 -51.99,-43.109 -5.64,0 -8.31,0.609 -13.68,2.386 -4.74,-5.054 -18.1,-8.3122 -18.1,-15.1364 0,-7.4609 12.76,-10.4102 42.47,-10.7031 33.59,-0.2852 45.17,-1.7969 54.09,-10.7032 7.12,-7.1484 8.9,-14.5507 8.9,-20.7812 0,-19.3164 -26.15,-49.023444 -81.12,-49.023444 -30.89,0 -45.74,13.652344 -45.74,28.222644 0,17.2149 18.13,19.8828 31.78,36.5039 -16.03,1.5235 -28.22,11.6016 -28.22,21.1133 0,13.6675 19.93,14.2655 30.31,21.9965 -18.12,7.129 -28.53,19.902 -28.53,36.851 0,25.567 22.88,45.473 52.29,45.473 13.67,0 25.27,-4.172 33.29,-11.903 13.35,0 25.84,1.508 38.92,2.977 l 0,-18.738" />
            <path
               inkscape:connector-curvature="0"
               id="path4192"
               style="fill:#0d4d84;fill-opacity:1;fill-rule:nonzero;stroke:none"
               d="m 1285.68,73.5039 c 17.53,0 37.41,17.8438 37.41,47.5391 0,33.867 -20.77,62.703 -45.73,62.703 -19.62,0 -37.75,-20.242 -37.75,-45.773 0,-35.957 20.53,-64.4691 46.07,-64.4691 z m -4.17,117.3791 c 36.26,0 63.87,-27.035 63.87,-62.422 0,-35.0547 -27.61,-62.0938 -62.98,-62.0938 -36.83,0 -65.06,26.7422 -65.06,61.4878 0,41 33.28,63.028 64.17,63.028" />
            <path
               inkscape:connector-curvature="0"
               id="path4194"
               style="fill:#0d4d84;fill-opacity:1;fill-rule:nonzero;stroke:none"
               d="m 1483.27,67.2461 -35.37,83.7969 -35.66,-83.7969 -8.29,0 -44.31,99.8589 c -4.14,9.208 -8.33,13.661 -21.98,15.141 l 0,5.352 57.65,0 0,-5.352 c -17.54,-0.879 -18.73,-5.933 -12.47,-19.887 l 32.07,-71.6363 29.13,68.9493 c -6.54,15.129 -11.6,20.496 -22,21.695 l -7.13,0.879 0,5.352 61.5,0 0,-5.352 c -14.55,-0.289 -18.99,-4.742 -12.77,-19.586 l 29.11,-70.7264 28.53,69.5074 c 6.54,15.762 1.49,20.805 -17.24,20.805 l 0,5.352 49.92,0 0,-5.352 c -11.28,-1.156 -18.42,-6.82 -24.37,-21.379 l -38.31,-93.6209 -8.01,0" />
            <path
               inkscape:connector-curvature="0"
               id="path4196"
               style="fill:#0d4d84;fill-opacity:1;fill-rule:nonzero;stroke:none"
               d="m 153.148,95.4766 9.87891,0 0,273.785 -9.87891,0 0,-273.785 z" />
            <path
               inkscape:connector-curvature="0"
               id="path4198"
               style="fill:#ffffff;fill-opacity:1;fill-rule:nonzero;stroke:none"
               d="m 223.344,370.941 c 8.82,0.051 23.086,-0.039 32.34,-0.039 2.871,0 7.578,0.852 4.941,-5.488 -2.34,-5.609 -5.703,-13.434 -7.156,-16.797 -4.875,0 -24.664,-0.015 -24.715,0.082 -1.574,3.664 -3.836,8.883 -6.707,15.516 -1.524,3.535 -2.281,6.726 1.297,6.726 z m -4.477,-95.961 48.797,0 c 14.402,0 15.715,-1.976 16.731,-5.07 -0.606,4.801 -3.711,29.371 -5.875,47.16 -0.567,4.645 -2.196,17.41 -8.633,25.02 -2.035,2.445 -3.016,3.672 -7.391,5.543 0.34,0.969 4.32,10.867 7.274,18.859 1.519,4.09 -0.122,8.156 -3.243,10.059 -2.714,1.633 -6.199,1.707 -8.691,1.707 -16.723,0 -29.637,-0.031 -34.793,-0.031 -8.938,0 -13.086,-5.684 -10.355,-12.547 2.074,-5.203 5.519,-14.075 7.093,-18.125 -10.992,-3.672 -14.625,-18.676 -16.222,-31.676 -2.653,-21.91 -6.25,-51.137 -6.508,-52.891 -0.387,-2.785 -0.852,-5.09 3.719,-5.304 8.671,-0.555 18.796,-0.618 35.847,-0.176 1.645,-0.926 3.774,-1.504 6.563,-1.41 2.765,0.043 4.785,0.777 6.234,1.8 6.953,0.25 14.863,0.575 23.906,0.938 -7.945,0.187 -15.39,0.41 -22.281,0.605 2.484,3.082 2.231,7.301 2.004,8.125 -1.031,-11.425 -15.871,-10.332 -12.199,1.789 -1.59,0 -5.723,0 -8.356,-2.148 -0.703,-1.769 -0.457,-4.73 1.235,-7.18 -9.629,0.422 -17.567,0.778 -23.301,1.102 -2.949,0.144 -4.371,2.269 -2.879,4.238 6.219,8.113 6.574,9.613 11.324,9.613" />
            <path
               inkscape:connector-curvature="0"
               id="path4200"
               style="fill:#ffffff;fill-opacity:1;fill-rule:nonzero;stroke:none"
               d="m 155.777,96.6484 c 0,-3.2109 -2.144,-5.8281 -4.804,-5.8281 -2.649,0 -4.817,2.6172 -4.817,5.8281 l 0,27.1676 c 0,3.188 2.168,5.813 4.817,5.813 2.66,0 4.804,-2.625 4.804,-5.813 l 0,-27.1676" />
            <path
               inkscape:connector-curvature="0"
               id="path4202"
               style="fill:#ffffff;fill-opacity:1;fill-rule:nonzero;stroke:none"
               d="m 88.7852,419.266 c 1.539,0.644 3.7343,0.48 5.7656,0.48 -2.2461,1.871 -4.2813,2.598 -5.5117,2.926 -2.8711,10.863 -18.6055,7.914 -20.1563,-1.719 -0.5586,-3.484 -12.9101,-5.012 -27.0703,-23.945 -6.5312,-8.699 -15.543,-16.242 -18.2734,-17.981 -2.75,-1.707 3.9453,-1.207 7.039,2.067 2.8985,-2.926 8.5899,5.855 17.1641,7.332 2.2695,0.363 30.7539,5.539 23.2422,21.847 10.0429,-12.91 -6.6914,-22.191 -17.2227,-23.222 0.9258,-0.485 6.3985,-0.914 7.0274,-1.164 1.5742,-0.555 -0.4649,-2.465 0.8125,-3.192 3.0703,-1.695 9.1562,-7.441 9.1562,-7.441 0,0 3.4766,1.18 1.8985,2.742 -4.6954,3.098 -5.9649,4.043 -7.168,5.977 -0.082,0.113 -1.6016,2.976 1.4922,3.789 4.4648,0.359 19.0703,5.547 16.5859,23.859 -0.3984,2.895 1.6328,6.031 5.2188,7.645" />
            <path
               inkscape:connector-curvature="0"
               id="path4204"
               style="fill:#0d4d84;fill-opacity:1;fill-rule:nonzero;stroke:none"
               d="m 86.6563,422.309 c 0,-0.961 -0.7149,-1.715 -1.586,-1.715 -0.8555,0 -1.5742,0.754 -1.5742,1.715 0,0.933 0.7187,1.722 1.5742,1.722 0.8711,0 1.586,-0.789 1.586,-1.722" />
            <path
               inkscape:connector-curvature="0"
               id="path4206"
               style="fill:#ffffff;fill-opacity:1;fill-rule:nonzero;stroke:none"
               d="m 160.238,92.1875 5.26563,0 0,38.4648 -5.26563,0 0,-38.4648 z" />
            <path
               inkscape:connector-curvature="0"
               id="path4208"
               style="fill:#ffffff;fill-opacity:1;fill-rule:nonzero;stroke:none"
               d="m 170.191,86.1914 c 1.563,1.6406 2.512,3.8555 2.512,6.3086 0,5.0352 -4.086,9.141 -9.148,9.141 l -15.567,0 c -5.054,0 -9.164,-4.1058 -9.164,-9.141 0,-2.3711 0.906,-4.4922 2.364,-6.1133 -1.879,-1.6992 -5.243,-4.9414 -6.176,-6.0547 10.453,-4.6093 30.301,-4.2382 41.488,0.0664 -1.051,0.9102 -4.629,4.1914 -6.309,5.793" />
            <path
               inkscape:connector-curvature="0"
               id="path4210"
               style="fill:#ffffff;fill-opacity:1;fill-rule:nonzero;stroke:none"
               d="m 155.535,401.91 c 0,-0.226 -0.023,-0.172 -0.023,0.067 -6.758,6.039 -28.461,8.617 -42.414,5.054 0.91,-1.695 2.035,-7.113 2.632,-9.277 20.602,6.855 39.782,-3.164 39.782,-3.164 0,0.047 0,0.133 0.008,0.199 0,-0.066 0,-0.172 0.015,-0.223 0,0 19.184,10.004 39.797,3.137 0.566,2.168 1.715,7.574 2.637,9.246 -13.981,3.598 -35.672,1.028 -42.434,-5.039" />
            <path
               inkscape:connector-curvature="0"
               id="path4212"
               style="fill:#ffffff;fill-opacity:1;fill-rule:nonzero;stroke:none"
               d="m 161.777,157.137 3.06641,0 0,212.141 -3.06641,0 0,-212.141 z" />
            <path
               inkscape:connector-curvature="0"
               id="path4214"
               style="fill:#ffffff;fill-opacity:1;fill-rule:nonzero;stroke:none"
               d="m 146.313,172.426 9.83594,0 0,196.836 -9.83594,0 0,-196.836 z" />
            <path
               inkscape:connector-curvature="0"
               id="path4216"
               style="fill:#0d4d84;fill-opacity:1;fill-rule:nonzero;stroke:none"
               d="m 165.547,293.539 c 0.641,2.301 0.941,7.992 0,9.781 -4.609,0 -11.781,-0.035 -15.961,0.067 9.57,-3.489 15.961,-9.848 15.961,-9.848" />
            <path
               inkscape:connector-curvature="0"
               id="path4218"
               style="fill:#0d4d84;fill-opacity:1;fill-rule:nonzero;stroke:none"
               d="m 131.055,118.285 c 5.504,-0.828 35.023,-2.222 35.023,-2.222 l 4.82,-12.524 c 0,0 -25.777,0.676 -39.843,14.746" />
            <path
               inkscape:connector-curvature="0"
               id="path4220"
               style="fill:#ffffff;fill-opacity:1;fill-rule:nonzero;stroke:none"
               d="m 251.887,208.07 c -9.235,5.969 -20.434,1.383 -32.567,11.555 0.043,-31.594 23.051,-37.93 10.11,-46.359 -11.547,-7.543 -22.719,-9.418 -34.325,-8.453 0.985,1.578 2.723,4.453 4.11,5.878 -14.227,1.832 -26.625,0.801 -31.828,0.196 -17.707,5.203 -37.352,11.769 -61.008,12.129 4.297,-3.504 8.519,-9.575 8.519,-20.043 -3.589,14.136 -18.2886,21.519 -25.5035,24.336 -2.1601,0.816 -4.1797,1.195 -6.2851,1.539 -1.0586,-1.442 -3.3399,-3.871 -7.1719,-5.305 -2.1875,1.164 -3.9727,-0.906 -3.6719,-1.586 0.1211,-0.336 0.0782,-0.672 -0.1836,-1.012 -2.1132,-2.738 -9.0507,-1.433 -14.207,0.36 -5.9453,2.05 -5.707,-2.047 -4.5547,-4.098 1.8633,-3.301 3.6719,-5.445 4.5508,-7.277 7.9023,-16.133 13.7539,-26.727 31.2695,-36.742 16.6444,-12.282 37.5624,-18.614 58.8474,-19.336 7.766,-2.782 25.602,-7.7 47.965,-4.125 -4.348,2.925 -8.691,5.816 -10.133,8.718 28.422,8.211 52.989,26.883 63.043,55.067 0.117,0.304 0.223,0.617 0.332,0.926 1.801,6.171 -4.175,14.371 -12.668,6.285 7.356,17.675 19.528,10.023 16.95,-0.43 9.707,13.074 22.699,27.129 40.043,32.461 -15.848,7.305 -31.407,0.973 -41.633,-4.684" />
            <path
               inkscape:connector-curvature="0"
               id="path4222"
               style="fill:#0d4d84;fill-opacity:1;fill-rule:nonzero;stroke:none"
               d="m 165.852,235.633 c 0.656,2.328 0.929,8.027 0,9.781 -4.622,0 -11.782,-0.059 -15.942,0.07 9.543,-3.492 15.942,-9.851 15.942,-9.851" />
            <path
               inkscape:connector-curvature="0"
               id="path4224"
               style="fill:#ffffff;fill-opacity:1;fill-rule:nonzero;stroke:none"
               d="m 172.563,254.242 c 0,-5.078 -4.161,-9.179 -9.282,-9.179 l -15.777,0 c -5.121,0 -9.281,4.101 -9.281,9.179 0,5.059 4.16,9.137 9.281,9.137 l 15.777,0 c 5.121,0 9.282,-4.078 9.282,-9.137" />
            <path
               inkscape:connector-curvature="0"
               id="path4226"
               style="fill:#0d4d84;fill-opacity:1;fill-rule:nonzero;stroke:none"
               d="m 163.02,248.18 c -9.254,-0.098 -17.207,0 -17.207,0 0,0 13.031,0.781 21.3,9.601 2.168,-1.445 2.575,-9.574 -4.093,-9.601" />
            <path
               inkscape:connector-curvature="0"
               id="path4228"
               style="fill:#0d4d84;fill-opacity:1;fill-rule:nonzero;stroke:none"
               d="m 166.008,176.922 c 0.648,2.297 0.91,8.027 0,9.781 -4.625,0 -11.766,-0.058 -15.949,0.074 9.55,-3.5 15.949,-9.855 15.949,-9.855" />
            <path
               inkscape:connector-curvature="0"
               id="path4230"
               style="fill:#ffffff;fill-opacity:1;fill-rule:nonzero;stroke:none"
               d="m 172.691,195.801 c 0,-5.078 -4.152,-9.176 -9.273,-9.176 l -15.777,0 c -5.125,0 -9.266,4.098 -9.266,9.176 0,5.062 4.141,9.109 9.266,9.109 l 15.777,0 c 5.121,0 9.273,-4.047 9.273,-9.109" />
            <path
               inkscape:connector-curvature="0"
               id="path4232"
               style="fill:#0d4d84;fill-opacity:1;fill-rule:nonzero;stroke:none"
               d="m 163.137,189.742 c -9.266,-0.09 -17.192,0.012 -17.192,0.012 0,0 13.008,0.723 21.285,9.601 2.172,-1.468 2.594,-9.574 -4.093,-9.613" />
            <path
               inkscape:connector-curvature="0"
               id="path4234"
               style="fill:#ffffff;fill-opacity:1;fill-rule:nonzero;stroke:none"
               d="m 141.555,327.012 27.8945,0 0,27.3828 -27.8945,0 0,-27.3828 z" />
            <path
               inkscape:connector-curvature="0"
               id="path4236"
               style="fill:#ffffff;fill-opacity:1;fill-rule:nonzero;stroke:none"
               d="m 169.449,327.051 c -4.738,-1.145 -4.429,-5.11 -4.605,-6.567 0,0 -11.246,-0.078 -18.633,0 0.059,0.422 0.23,5.848 -4.656,6.567 0,0 26.101,-0.024 27.894,0" />
            <path
               inkscape:connector-curvature="0"
               id="path4238"
               style="fill:#0d4d84;fill-opacity:1;fill-rule:nonzero;stroke:none"
               d="m 157.844,326.668 7.55469,0 0,27.7266 -7.55469,0 0,-27.7266 z" />
            <path
               inkscape:connector-curvature="0"
               id="path4240"
               style="fill:#ffffff;fill-opacity:1;fill-rule:nonzero;stroke:none"
               d="m 67.1445,184.141 c -1.3984,0.527 -2.1562,1.714 -2.5351,2.613 -0.9024,1.996 -0.875,4.668 0.1015,7.195 0.9688,2.481 2.7344,4.508 4.7813,5.406 0.8828,0.387 2.2422,0.727 3.6289,0.204 2.0547,-0.825 3.2227,-3.114 3.2227,-5.864 0,-1.269 -0.2461,-2.621 -0.7579,-3.941 -0.9531,-2.504 -2.75,-4.52 -4.7656,-5.434 -0.8945,-0.371 -2.2422,-0.746 -3.6758,-0.179 z m 0.8594,18.535 c -2.9336,-1.285 -5.3906,-3.985 -6.6953,-7.414 -1.3438,-3.442 -1.3438,-7.063 -0.0547,-10.028 0.9375,-2.125 2.5703,-3.746 4.5859,-4.531 1.9922,-0.762 4.2969,-0.648 6.4454,0.301 2.9375,1.269 5.3867,3.992 6.7187,7.394 2.3828,6.161 0.3125,12.657 -4.5469,14.555 -2.0117,0.797 -4.3047,0.695 -6.4531,-0.277" />
            <path
               inkscape:connector-curvature="0"
               id="path4242"
               style="fill:#ffffff;fill-opacity:1;fill-rule:nonzero;stroke:none"
               d="m 72.1406,185.117 c -1.5781,0.504 -5.4492,1.637 -10.1172,1.785 -3.3086,0.106 -6.5312,2.016 -6.3398,2.989 0.1836,0.703 1.043,1.062 2.4297,1.261 3.1953,0.45 10.1172,0.078 17.5898,-1.132 -0.625,-1.801 -1.6406,-3.469 -3.5625,-4.903" />
            <path
               inkscape:connector-curvature="0"
               id="path4244"
               style="fill:#ffffff;fill-opacity:1;fill-rule:nonzero;stroke:none"
               d="m 172.789,312.387 c 0,-5.078 -4.137,-9.207 -9.289,-9.207 l -15.758,0 c -5.14,0 -9.281,4.129 -9.281,9.207 0,5.035 4.141,9.133 9.281,9.133 l 15.758,0 c 5.152,0 9.289,-4.098 9.289,-9.133" />
            <path
               inkscape:connector-curvature="0"
               id="path4246"
               style="fill:#0d4d84;fill-opacity:1;fill-rule:nonzero;stroke:none"
               d="m 163.262,306.324 c -9.27,-0.105 -17.227,0.004 -17.227,0.004 0,0 13.031,0.781 21.313,9.613 2.168,-1.48 2.578,-9.586 -4.086,-9.617" />
            <path
               inkscape:connector-curvature="0"
               id="path4248"
               style="fill:#ffffff;fill-opacity:1;fill-rule:nonzero;stroke:none"
               d="m 101.453,179.59 c 10.055,-6.723 13.445,-16.617 13.445,-16.617 0,0 3.344,8.281 -1.23,14.703 9.145,2.66 25.027,-1.5 39.363,-7.11 21.032,-8.238 36.77,-10.976 52.793,-8.238 16.008,2.719 24.446,6.051 29.602,14.039 2.734,4.278 10.828,3.367 8.551,-3.039 -2.289,-6.414 -12.219,-24.719 -30.985,-29.773 -18.769,-5.02 -49.734,-13.434 -95.527,-1.969 -12.25,3.066 -41.0314,10.707 -52.7892,25.816 -2.3555,3.032 -2.9727,8.668 -3.082,9.559 -0.1368,1.094 0.582,1.656 3.1523,1.211 8.0703,-1.418 9.6055,1.664 12.6016,5.058 3.3086,0.438 14.9453,2.454 24.1053,-3.64" />
            <path
               inkscape:connector-curvature="0"
               id="path4250"
               style="fill:#0d4d84;fill-opacity:1;fill-rule:nonzero;stroke:none"
               d="m 240.609,174.629 c -13.992,-26.613 -41.054,-30.742 -69.379,-31.602 -11.484,-0.324 -22.964,1.11 -32.839,3.637 8.32,-0.844 16.937,-0.176 22.195,1.652 -2.051,10.672 -20.266,18.418 -32.969,19.11 -2.414,2.746 -3.101,6.304 -8.945,8.375 4.125,-3.774 3.789,-9.067 5.844,-11.797 10.39,-2.113 23.078,-4.77 29.191,-12.941 -2.16,-2.766 -20.957,-1.227 -31.219,1.109 -4.422,1.625 -9.027,4.293 -11.476,9.074 -4.895,-5.476 -12.6722,-3.512 -20.6682,0.477 -0.1133,3.105 -2.0235,5.832 -6.1524,6.632 0.8906,-1.359 1.125,-2.769 1.1367,-3.917 -9.039,5.199 -17.6445,11.566 -21.9687,11.234 -6.1328,-0.461 13.3828,-34.707 29.8672,-38.352 48.9574,-28.222 130.7654,-15.832 150.1524,31.809 2.73,6.875 0.32,11.34 -2.77,5.5" />
            <path
               inkscape:connector-curvature="0"
               id="path4252"
               style="fill:#ffffff;fill-opacity:1;fill-rule:nonzero;stroke:none"
               d="m 85.9844,164.898 c 0.2773,-2.976 -2.0703,-5.664 -5.2461,-5.968 -3.1641,-0.367 -5.9805,1.836 -6.2813,4.84 -0.289,3.003 2.043,5.691 5.2149,6 3.1758,0.308 5.9922,-1.864 6.3125,-4.872" />
            <path
               inkscape:connector-curvature="0"
               id="path4254"
               style="fill:#0d4d84;fill-opacity:1;fill-rule:nonzero;stroke:none"
               d="m 83.2188,164.332 c 0,-1.477 -1.3555,-2.648 -3.0274,-2.648 -1.6367,0 -2.9883,1.171 -2.9883,2.648 0,1.469 1.3516,2.676 2.9883,2.676 1.6719,0 3.0274,-1.207 3.0274,-2.676" />
            <path
               inkscape:connector-curvature="0"
               id="path4256"
               style="fill:#ffffff;fill-opacity:1;fill-rule:nonzero;stroke:none"
               d="m 223.523,213.133 c -3.363,-11.586 10.989,-27.219 10.989,-27.219 0,0 -6.492,20.277 -10.989,27.219" />
            <path
               inkscape:connector-curvature="0"
               id="path4258"
               style="fill:#ffffff;fill-opacity:1;fill-rule:nonzero;stroke:none"
               d="m 233.594,210.645 c -4.934,-6.778 4.344,-22.231 4.344,-22.231 0,0 -0.512,12.352 -4.344,22.231" />
            <path
               inkscape:connector-curvature="0"
               id="path4260"
               style="fill:#ffffff;fill-opacity:1;fill-rule:nonzero;stroke:none"
               d="m 249.137,193.008 c 3.906,8.472 11.699,16.933 19.949,19.926 -17.191,-2.079 -21.074,-13.504 -19.949,-19.926" />
            <path
               inkscape:connector-curvature="0"
               id="path4262"
               style="fill:#ffffff;fill-opacity:1;fill-rule:nonzero;stroke:none"
               d="m 155.496,449.918 c -7.25,14.047 -17.613,3.227 -35.773,8.848 -3.207,-14.86 -6.418,-41.446 -7.325,-46.016 12.403,-3.73 23.321,7.871 38.137,-1.793 -1.59,19.168 4.594,35.137 4.594,35.137 0,0 0.187,2.344 0.367,3.824" />
            <path
               inkscape:connector-curvature="0"
               id="path4264"
               style="fill:#ffffff;fill-opacity:1;fill-rule:nonzero;stroke:none"
               d="m 191.324,458.832 c -18.156,-5.621 -28.547,5.195 -35.777,-8.863 -0.02,-4.789 -0.035,-40.207 0.027,-42.852 17.414,16.266 29.36,1.578 43.078,5.699 -0.918,4.571 -4.125,31.145 -7.328,46.016" />
            <path
               inkscape:connector-curvature="0"
               id="path4266"
               style="fill:#ffffff;fill-opacity:1;fill-rule:nonzero;stroke:none"
               d="m 150.488,369.262 10.0977,0 0,11.7383 -10.0977,0 0,-11.7383 z" />
            <path
               inkscape:connector-curvature="0"
               id="path4268"
               style="fill:#ffffff;fill-opacity:1;fill-rule:nonzero;stroke:none"
               d="m 155.598,392.25 5.027,-8.777 -10.187,-0.051 5.16,8.828" />
            <path
               inkscape:connector-curvature="0"
               id="path4270"
               style="fill:#199445;fill-opacity:1;fill-rule:nonzero;stroke:none"
               d="m 70.6367,357.582 0,0.07 c -0.082,0.032 -0.0742,-0.011 0,-0.07" />
            <path
               inkscape:connector-curvature="0"
               id="path4272"
               style="fill:#ffffff;fill-opacity:1;fill-rule:nonzero;stroke:none"
               d="m 111.27,300.078 c 0,0 13.851,6.836 15.222,13.871 -4.285,4.117 -15.113,4.571 -15.113,4.571 0,0 12.434,9.468 11.91,16.339 -6.211,2.891 -17.266,1.204 -17.266,1.204 5.133,7.105 6.594,12.746 6.395,17.707 -6.465,1.074 -16.4414,-2.754 -16.4414,-2.754 0,0 3.3437,11.922 0.0547,18.101 -5.9766,1.602 -14.4102,-8.937 -14.4102,-8.937 0,0 -3,13.031 -9.9961,19.965 -7.0156,-6.934 -10.0937,-19.965 -10.0937,-19.965 0,0 -8.418,10.539 -14.4258,8.937 -3.25,-6.179 0.082,-18.101 0.082,-18.101 0,0 -9.9766,3.828 -16.4727,2.754 -0.1718,-4.961 1.2969,-10.602 6.4258,-17.707 0,0 -11.082,1.687 -17.2617,-1.204 -0.5234,-6.871 11.9024,-16.339 11.9024,-16.339 0,0 -10.8438,-0.454 -15.1133,-4.571 1.3789,-7.035 15.2383,-13.871 15.2383,-13.871 0,0 -8.254,-1.695 -13.2852,-7.402 3.207,-4.262 10.4297,-8.336 16.0781,-9.27 -4.8828,-3.933 -7.6172,-7.004 -8.8515,-9.301 7.9336,-6.41 24.5625,-7.32 41.1914,-2.136 0,-3.184 0.0507,-28.848 -3.8438,-40.606 l 16.7617,0 c -3.8789,11.758 -3.8359,37.422 -3.8359,40.606 16.6289,-5.184 33.2809,-4.274 41.1879,2.136 -1.25,2.297 -3.954,5.368 -8.825,9.301 5.641,0.934 12.844,5.008 16.055,9.27 -5.047,5.707 -13.269,7.402 -13.269,7.402" />
            <path
               inkscape:connector-curvature="0"
               id="path4274"
               style="fill:#0d4d84;fill-opacity:1;fill-rule:nonzero;stroke:none"
               d="m 96.1211,299.617 c 1.5625,0.867 9.6089,3.321 13.7229,10.496 -4.114,3.989 -13.7229,4.133 -13.7229,4.133 0,0 8.5509,5.633 11.4419,14.059 -7.333,2.133 -14.9497,0 -14.9497,0 0,0 6.25,8.859 7.0195,16.328 -7.0195,-0.766 -14.4922,-4.461 -14.4922,-4.461 2.1211,4.613 3.1914,11.141 2.2774,16.816 -3.5078,-0.691 -6.7032,-4.695 -8.625,-7.187 -1.7813,5.683 -4.8047,7.472 -6.8711,8.621 -3.4219,-5.027 -4.1055,-8.285 -3.6797,-15.168 1.1562,1.141 2.9844,2.957 5.9726,4.672 1.8165,-9.824 -1.6796,-16.973 -1.6796,-16.973 0,0 4.3242,2.824 10.0546,3.496 0.2383,-5.41 -1.75,-11.035 -7.4687,-17.672 0,0 5.0312,3.036 10.8477,3.5 -0.9297,-7.636 -5.5938,-12.738 -10.4024,-17.097 3.207,1.508 8.7109,1.367 12.5195,0.14 -1.9726,-5.797 -6.5,-8.711 -13.1054,-12.343 4.0937,0 8.3008,-0.543 10.6601,-2.133 -2.6562,-4.973 -9.1406,-7.336 -13.6367,-8.621 10.3828,-3.957 20.4414,-5.61 30.2931,-3.219 -0.688,2.934 -4.422,6.5 -8.7775,9 3.9805,0.91 9.9185,2.148 15.1135,6.582 -3.36,3.359 -7.485,5.637 -12.5119,7.031" />
            <path
               inkscape:connector-curvature="0"
               id="path4276"
               style="fill:#ffffff;fill-opacity:1;fill-rule:nonzero;stroke:none"
               d="M 40.707,75.1289 C 43.0625,67.2734 36.7813,52.0781 41.2461,43.3008 37.4375,43.4258 13.207,38.9922 9.63281,42.1367 6.09766,45.2617 -3.32422,51.9531 6.09766,57.0781 15.543,62.1758 39.3984,71.3555 40.707,75.1289" />
            <path
               inkscape:connector-curvature="0"
               id="path4278"
               style="fill:#ffffff;fill-opacity:1;fill-rule:nonzero;stroke:none"
               d="m 271.938,75.9258 c 2.773,-25.1563 -1.45,-27.9883 -1.192,-35.2149 2.367,-0.6054 21.633,-4.6093 28.438,-0.9648 6.808,3.6797 11.523,12.5898 8.375,16.25 -3.141,3.6797 -18.844,13.6406 -25.125,14.6758 -6.289,1.0742 -8.782,3.3984 -10.496,5.2539" />
            <path
               inkscape:connector-curvature="0"
               id="path4280"
               style="fill:#0d4d84;fill-opacity:1;fill-rule:nonzero;stroke:none"
               d="M 301.777,64.3828 C 291.313,70 275.77,73.3984 266.992,85.3984 c -3.301,-12.0781 4.692,-19.0312 4.371,-36.8046 7.403,13.8085 1.309,17.1992 2.559,23.75 5.957,-7.5977 14.891,-8.6915 21.129,-11.9336 7.957,-4.1719 12.836,-13.3594 -3.637,-13.3008 -32.172,0.0664 -238.6367,-0.0391 -271.5156,-0.0391 -17.00387,0 -12.02731,9.1211 -4.0625,13.2813 6.2461,3.2422 15.2852,4.3359 21.2227,12.1484 1.2422,-6.543 -4.918,-9.9023 2.5117,-23.7109 -0.332,17.7812 7.586,24.4218 4.4453,36.6093 C 35.2422,73.3984 19.4531,70 8.96875,64.3828 0.0625,59.6484 0.0429688,56.4844 0.0429688,41.2305 0.0429688,31.0039 0.09375,18.0938 0,9.45313 -0.0585938,3.36719 7.01172,-0.226563 15.4492,0.0078125 c 38.6758,0 241.1678,0 279.8558,0 8.418,-0.2343755 15.597,3.2734375 15.597,9.3476575 0.051,8.67183 -0.089,21.73833 0,31.95313 0.129,15.6836 -0.226,18.3398 -9.125,23.0742" />
            <path
               inkscape:connector-curvature="0"
               id="path4282"
               style="fill:#ffffff;fill-opacity:1;fill-rule:nonzero;stroke:none"
               d="m 15.5898,33.8867 5.9922,0 4.1641,-11.6015 c 0.0898,-0.2344 0.3203,-1.1719 0.6758,-2.7735 0.3984,1.6016 0.6445,2.5391 0.7461,2.7735 l 4.0781,11.6015 6.0195,0 -8.6758,-20.7226 -4.2929,0 -8.7071,20.7226" />
            <path
               inkscape:connector-curvature="0"
               id="path4284"
               style="fill:#ffffff;fill-opacity:1;fill-rule:nonzero;stroke:none"
               d="m 40.5313,13.1641 5.73438,0 0,20.7227 -5.73438,0 0,-20.7227 z" />
            <path
               inkscape:connector-curvature="0"
               id="path4286"
               style="fill:#ffffff;fill-opacity:1;fill-rule:nonzero;stroke:none"
               d="m 63.3438,20.8672 -2.1055,6.8476 c -0.0938,0.3516 -0.3438,1.2696 -0.711,2.8008 -0.375,-1.5312 -0.6289,-2.4492 -0.7226,-2.8008 l -2.0859,-6.8476 5.625,0 z m -6.375,13.0195 7.0742,0 7.1523,-20.7226 -5.6289,0 -1.0273,3.7187 -8.0235,0 -1.0898,-3.7187 -5.6055,0 7.1485,20.7226" />
            <path
               inkscape:connector-curvature="0"
               id="path4288"
               style="fill:#ffffff;fill-opacity:1;fill-rule:nonzero;stroke:none"
               d="m 82.3711,33.8867 6.0078,0 4.1406,-11.6015 c 0.0977,-0.2344 0.3086,-1.1719 0.6993,-2.7735 0.3671,1.6016 0.6289,2.5391 0.7148,2.7735 l 4.1172,11.6015 5.9922,0 -8.6875,-20.7226 -4.2813,0 -8.7031,20.7226" />
            <path
               inkscape:connector-curvature="0"
               id="path4290"
               style="fill:#ffffff;fill-opacity:1;fill-rule:nonzero;stroke:none"
               d="m 107.172,33.8867 12.699,0 0,-4.5508 -7.199,0 0,-3.6132 6.785,0 0,-4.4141 -6.785,0 0,-3.5156 7.199,0 0,-4.6289 -12.699,0 0,20.7226" />
            <path
               inkscape:connector-curvature="0"
               id="path4292"
               style="fill:#ffffff;fill-opacity:1;fill-rule:nonzero;stroke:none"
               d="m 131.402,24.082 c 2.36,0 3.496,0.7422 3.496,2.5782 0,2.1679 -1.07,2.8515 -3.414,2.8515 l -1.136,0 0,-5.4297 1.054,0 z m -6.363,9.8047 5.918,0 c 0.121,0 0.227,0 0.344,0 2.863,0 5.078,-0.0312 6.859,-1.3867 1.481,-1.1719 2.289,-2.9297 2.289,-5.0977 0,-3.2031 -1.605,-5.246 -4.621,-5.8984 l 5.649,-8.3398 -6.379,0 -4.75,8.1132 0,-8.1132 -5.309,0 0,20.7226" />
            <path
               inkscape:connector-curvature="0"
               id="path4294"
               style="fill:#ffffff;fill-opacity:1;fill-rule:nonzero;stroke:none"
               d="m 145.211,13.1641 5.71094,0 0,20.7227 -5.71094,0 0,-20.7227 z" />
            <path
               inkscape:connector-curvature="0"
               id="path4296"
               style="fill:#ffffff;fill-opacity:1;fill-rule:nonzero;stroke:none"
               d="m 159.902,28.9844 -4.609,0 0,4.9023 14.895,0 0,-4.9023 -4.641,0 0,-15.8203 -5.645,0 0,15.8203" />
            <path
               inkscape:connector-curvature="0"
               id="path4298"
               style="fill:#ffffff;fill-opacity:1;fill-rule:nonzero;stroke:none"
               d="m 185.48,20.8672 -2.121,6.8476 c -0.093,0.3516 -0.312,1.2696 -0.695,2.8008 -0.363,-1.5312 -0.633,-2.4492 -0.738,-2.8008 l -2.071,-6.8476 5.625,0 z m -6.375,13.0195 7.047,0 7.164,-20.7226 -5.601,0 -1.059,3.7187 -8.011,0 -1.071,-3.7187 -5.636,0 7.167,20.7226" />
            <path
               inkscape:connector-curvature="0"
               id="path4300"
               style="fill:#ffffff;fill-opacity:1;fill-rule:nonzero;stroke:none"
               d="m 202.605,17.0313 c 1.551,0 2.583,0.8984 2.583,2.1289 0,1.6484 -1.133,2.1484 -3.493,2.7617 -3.715,0.9687 -5.543,2.4726 -5.543,5.7148 0,3.8477 2.801,6.7188 7.161,6.7188 2.312,0 4.328,-0.586 6.113,-1.836 l -1.766,-4.0429 c -1.293,1.0937 -2.676,1.6406 -3.961,1.6406 -1.386,0 -2.297,-0.7617 -2.297,-1.7383 0,-1.4844 1.442,-1.8086 3.309,-2.3047 3.668,-0.9765 5.719,-2.3242 5.719,-6.1719 0,-4.2773 -3.086,-7.3046 -7.946,-7.3046 -2.918,0 -5.14,0.9453 -7.351,3.0468 l 2.543,4.1993 c 1.66,-1.875 3.285,-2.8125 4.929,-2.8125" />
            <path
               inkscape:connector-curvature="0"
               id="path4302"
               style="fill:#ffffff;fill-opacity:1;fill-rule:nonzero;stroke:none"
               d="m 222.781,33.8867 6.004,0 4.149,-11.6015 c 0.078,-0.2344 0.32,-1.1719 0.675,-2.7735 0.391,1.6016 0.637,2.5391 0.727,2.7735 l 4.117,11.6015 6.012,0 -8.695,-20.7226 -4.286,0 -8.703,20.7226" />
            <path
               inkscape:connector-curvature="0"
               id="path4304"
               style="fill:#ffffff;fill-opacity:1;fill-rule:nonzero;stroke:none"
               d="m 247.73,13.1641 5.71094,0 0,20.7227 -5.71094,0 0,-20.7227 z" />
            <path
               inkscape:connector-curvature="0"
               id="path4306"
               style="fill:#ffffff;fill-opacity:1;fill-rule:nonzero;stroke:none"
               d="m 262.422,28.9844 -4.602,0 0,4.9023 14.891,0 0,-4.9023 -4.648,0 0,-15.8203 -5.641,0 0,15.8203" />
            <path
               inkscape:connector-curvature="0"
               id="path4308"
               style="fill:#ffffff;fill-opacity:1;fill-rule:nonzero;stroke:none"
               d="m 287.992,20.8672 -2.125,6.8476 c -0.082,0.3516 -0.297,1.2696 -0.668,2.8008 -0.402,-1.5312 -0.644,-2.4492 -0.734,-2.8008 l -2.07,-6.8476 5.597,0 z m -6.371,13.0195 7.07,0 7.153,-20.7226 -5.625,0 -1.035,3.7187 -8.016,0 -1.094,-3.7187 -5.609,0 7.156,20.7226" />
            <path
               inkscape:connector-curvature="0"
               id="path4310"
               style="fill:#0d4d84;fill-opacity:1;fill-rule:nonzero;stroke:none"
               d="m 166.773,97.5781 c 1.372,-1.6367 2.309,-9.3086 -4.347,-9.8554 -11.453,-0.8985 -16.961,0.2461 -16.961,0.2461 0,0 15.359,1.8046 21.308,9.6093" />
            <path
               inkscape:connector-curvature="0"
               id="path4312"
               style="fill:#0d4d84;fill-opacity:1;fill-rule:nonzero;stroke:none"
               d="m 218.418,332.809 c 0.699,9.394 5.137,11.586 11.227,11.449 3.418,-0.082 8.582,-0.129 21.097,-0.031 -7.047,-0.625 -15.836,-4.329 -16.976,-13.497 -1.071,-8.515 -1.137,-38.011 -1.348,-50.585 -6.184,-0.235 -14.453,-0.012 -16.281,-0.481 0.902,13.055 1.593,43.75 2.281,53.145" />
          </g>
        </g>
      </g>
    </g>
  </g>
</svg>
